<?xml version="1.0" encoding="UTF-8"?>
<!DOCTYPE svg PUBLIC "-//W3C//DTD SVG 1.1//EN" "http://www.w3.org/Graphics/SVG/1.1/DTD/svg11.dtd">
<svg xmlns="http://www.w3.org/2000/svg" version="1.1" width="512px" height="512px" style="shape-rendering:geometricPrecision; text-rendering:geometricPrecision; image-rendering:optimizeQuality; fill-rule:evenodd; clip-rule:evenodd" xmlns:xlink="http://www.w3.org/1999/xlink">
<g><path style="opacity:0.021" fill="#43443f" d="M -0.5,-0.5 C 0.166667,-0.5 0.833333,-0.5 1.5,-0.5C 1.16667,0.5 0.5,1.16667 -0.5,1.5C -0.5,0.833333 -0.5,0.166667 -0.5,-0.5 Z"/></g>
<g><path style="opacity:0.022" fill="#43443f" d="M 16.5,-0.5 C 18.1667,-0.5 19.8333,-0.5 21.5,-0.5C 14.5,7.16667 7.16667,14.5 -0.5,21.5C -0.5,19.8333 -0.5,18.1667 -0.5,16.5C 5.5,11.1667 11.1667,5.5 16.5,-0.5 Z"/></g>
<g><path style="opacity:0.022" fill="#43443f" d="M 36.5,-0.5 C 38.1667,-0.5 39.8333,-0.5 41.5,-0.5C 27.8333,13.8333 13.8333,27.8333 -0.5,41.5C -0.5,39.8333 -0.5,38.1667 -0.5,36.5C 12.1667,24.5 24.5,12.1667 36.5,-0.5 Z"/></g>
<g><path style="opacity:0.022" fill="#43443f" d="M 56.5,-0.5 C 58.1667,-0.5 59.8333,-0.5 61.5,-0.5C 41.1667,20.5 20.5,41.1667 -0.5,61.5C -0.5,59.8333 -0.5,58.1667 -0.5,56.5C 18.8333,37.8333 37.8333,18.8333 56.5,-0.5 Z"/></g>
<g><path style="opacity:0.022" fill="#43443f" d="M 76.5,-0.5 C 78.1667,-0.5 79.8333,-0.5 81.5,-0.5C 54.5,27.1667 27.1667,54.5 -0.5,81.5C -0.5,79.8333 -0.5,78.1667 -0.5,76.5C 25.5,51.1667 51.1667,25.5 76.5,-0.5 Z"/></g>
<g><path style="opacity:0.022" fill="#43443f" d="M 96.5,-0.5 C 98.1667,-0.5 99.8333,-0.5 101.5,-0.5C 67.8333,33.8333 33.8333,67.8333 -0.5,101.5C -0.5,99.8333 -0.5,98.1667 -0.5,96.5C 32.1667,64.5 64.5,32.1667 96.5,-0.5 Z"/></g>
<g><path style="opacity:0.022" fill="#43443f" d="M 116.5,-0.5 C 118.167,-0.5 119.833,-0.5 121.5,-0.5C 81.1667,40.5 40.5,81.1667 -0.5,121.5C -0.5,119.833 -0.5,118.167 -0.5,116.5C 38.8333,77.8333 77.8333,38.8333 116.5,-0.5 Z"/></g>
<g><path style="opacity:0.022" fill="#43443f" d="M 136.5,-0.5 C 138.167,-0.5 139.833,-0.5 141.5,-0.5C 94.5,47.1667 47.1667,94.5 -0.5,141.5C -0.5,139.833 -0.5,138.167 -0.5,136.5C 45.5,91.1667 91.1667,45.5 136.5,-0.5 Z"/></g>
<g><path style="opacity:0.022" fill="#43443f" d="M 156.5,-0.5 C 158.167,-0.5 159.833,-0.5 161.5,-0.5C 107.833,53.8333 53.8333,107.833 -0.5,161.5C -0.5,159.833 -0.5,158.167 -0.5,156.5C 52.1667,104.5 104.5,52.1667 156.5,-0.5 Z"/></g>
<g><path style="opacity:0.022" fill="#434340" d="M 176.5,-0.5 C 178.167,-0.5 179.833,-0.5 181.5,-0.5C 168.5,12.8333 155.5,26.1667 142.5,39.5C 141.833,39.5 141.5,39.8333 141.5,40.5C 140.833,40.5 140.5,40.8333 140.5,41.5C 135.149,45.1921 129.815,48.8588 124.5,52.5C 141.833,34.8333 159.167,17.1667 176.5,-0.5 Z"/></g>
<g><path style="opacity:0.022" fill="#43443f" d="M 196.5,-0.5 C 198.167,-0.5 199.833,-0.5 201.5,-0.5C 195.167,6.16667 188.833,12.8333 182.5,19.5C 181.833,19.5 181.5,19.8333 181.5,20.5C 178.838,21.4986 176.172,22.4986 173.5,23.5C 181.167,15.5 188.833,7.5 196.5,-0.5 Z"/></g>
<g><path style="opacity:0.022" fill="#43443f" d="M 216.5,-0.5 C 218.167,-0.5 219.833,-0.5 221.5,-0.5C 217.833,3.5 214.167,7.5 210.5,11.5C 209.833,11.5 209.5,11.8333 209.5,12.5C 207.435,12.5172 205.435,12.8505 203.5,13.5C 207.833,8.83333 212.167,4.16667 216.5,-0.5 Z"/></g>
<g><path style="opacity:0.022" fill="#43443f" d="M 236.5,-0.5 C 238.167,-0.5 239.833,-0.5 241.5,-0.5C 239.167,2.16667 236.833,4.83333 234.5,7.5C 233.833,7.5 233.5,7.83333 233.5,8.5C 231.833,8.5 230.167,8.5 228.5,8.5C 231.167,5.5 233.833,2.5 236.5,-0.5 Z"/></g>
<g><path style="opacity:0.022" fill="#43443f" d="M 256.5,-0.5 C 258.167,-0.5 259.833,-0.5 261.5,-0.5C 259.167,2.16667 256.833,4.83333 254.5,7.5C 252.833,7.5 251.167,7.5 249.5,7.5C 251.833,4.83333 254.167,2.16667 256.5,-0.5 Z"/></g>
<g><path style="opacity:0.022" fill="#43443f" d="M 276.5,-0.5 C 278.167,-0.5 279.833,-0.5 281.5,-0.5C 279.167,2.16667 276.833,4.83333 274.5,7.5C 272.833,7.5 271.167,7.5 269.5,7.5C 271.833,4.83333 274.167,2.16667 276.5,-0.5 Z"/></g>
<g><path style="opacity:0.022" fill="#43443f" d="M 296.5,-0.5 C 298.167,-0.5 299.833,-0.5 301.5,-0.5C 298.167,3.16667 294.833,6.83333 291.5,10.5C 290.292,9.76589 288.959,9.43255 287.5,9.5C 290.5,6.16667 293.5,2.83333 296.5,-0.5 Z"/></g>
<g><path style="opacity:0.022" fill="#43443f" d="M 316.5,-0.5 C 318.167,-0.5 319.833,-0.5 321.5,-0.5C 317.167,4.16667 312.833,8.83333 308.5,13.5C 307.041,13.5674 305.708,13.2341 304.5,12.5C 308.5,8.16667 312.5,3.83333 316.5,-0.5 Z"/></g>
<g><path style="opacity:0.022" fill="#43443f" d="M 336.5,-0.5 C 338.167,-0.5 339.833,-0.5 341.5,-0.5C 335.5,5.83333 329.5,12.1667 323.5,18.5C 322.005,18.0113 320.671,17.3446 319.5,16.5C 325.5,11.1667 331.167,5.5 336.5,-0.5 Z"/></g>
<g><path style="opacity:0.022" fill="#43443f" d="M 356.5,-0.5 C 358.167,-0.5 359.833,-0.5 361.5,-0.5C 353.833,7.5 346.167,15.5 338.5,23.5C 337.041,23.5674 335.708,23.2341 334.5,22.5C 341.833,14.8333 349.167,7.16667 356.5,-0.5 Z"/></g>
<g><path style="opacity:0.022" fill="#43433f" d="M 376.5,-0.5 C 378.167,-0.5 379.833,-0.5 381.5,-0.5C 371.5,9.83333 361.5,20.1667 351.5,30.5C 350.29,30.0679 349.29,29.4013 348.5,28.5C 357.833,18.8333 367.167,9.16667 376.5,-0.5 Z"/></g>
<g><path style="opacity:0.022" fill="#43443f" d="M 396.5,-0.5 C 398.167,-0.5 399.833,-0.5 401.5,-0.5C 389.167,12.1667 376.833,24.8333 364.5,37.5C 363.29,37.0679 362.29,36.4013 361.5,35.5C 373.167,23.5 384.833,11.5 396.5,-0.5 Z"/></g>
<g><path style="opacity:0.022" fill="#43443f" d="M 416.5,-0.5 C 418.167,-0.5 419.833,-0.5 421.5,-0.5C 406.5,14.8333 391.5,30.1667 376.5,45.5C 375.5,44.8333 374.5,44.1667 373.5,43.5C 387.833,28.8333 402.167,14.1667 416.5,-0.5 Z"/></g>
<g><path style="opacity:0.022" fill="#43443f" d="M 436.5,-0.5 C 438.167,-0.5 439.833,-0.5 441.5,-0.5C 423.833,17.8333 405.833,35.8333 387.5,53.5C 386.5,53.1667 385.833,52.5 385.5,51.5C 402.5,34.1667 419.5,16.8333 436.5,-0.5 Z"/></g>
<g><path style="opacity:0.022" fill="#43443f" d="M 456.5,-0.5 C 458.167,-0.5 459.833,-0.5 461.5,-0.5C 440.5,20.8333 419.5,42.1667 398.5,63.5C 397.167,62.8333 396.167,61.8333 395.5,60.5C 416.167,40.5 436.5,20.1667 456.5,-0.5 Z"/></g>
<g><path style="opacity:0.022" fill="#43443f" d="M 476.5,-0.5 C 478.167,-0.5 479.833,-0.5 481.5,-0.5C 457.167,24.1667 432.833,48.8333 408.5,73.5C 407.167,72.8333 406.167,71.8333 405.5,70.5C 429.5,47.1667 453.167,23.5 476.5,-0.5 Z"/></g>
<g><path style="opacity:0.022" fill="#43443f" d="M 496.5,-0.5 C 498.167,-0.5 499.833,-0.5 501.5,-0.5C 473.833,27.8333 445.833,55.8333 417.5,83.5C 416.5,83.1667 415.833,82.5 415.5,81.5C 442.5,54.1667 469.5,26.8333 496.5,-0.5 Z"/></g>
<g><path style="opacity:0.022" fill="#43443f" d="M 511.5,5.5 C 511.5,7.16667 511.5,8.83333 511.5,10.5C 482.833,38.5 454.5,66.8333 426.5,95.5C 425.599,94.7095 424.932,93.7095 424.5,92.5C 453.167,63.1667 482.167,34.1667 511.5,5.5 Z"/></g>
<g><path style="opacity:0.993" fill="#3d385b" d="M 234.5,7.5 C 239.5,7.5 244.5,7.5 249.5,7.5C 251.167,7.5 252.833,7.5 254.5,7.5C 259.5,7.5 264.5,7.5 269.5,7.5C 271.167,7.5 272.833,7.5 274.5,7.5C 278.812,8.24761 283.146,8.91427 287.5,9.5C 288.959,9.43255 290.292,9.76589 291.5,10.5C 295.876,10.9088 300.21,11.5755 304.5,12.5C 305.708,13.2341 307.041,13.5674 308.5,13.5C 312.095,14.6972 315.761,15.6972 319.5,16.5C 320.671,17.3446 322.005,18.0113 323.5,18.5C 327.279,19.5578 330.946,20.8911 334.5,22.5C 335.708,23.2341 337.041,23.5674 338.5,23.5C 341.515,25.6744 344.849,27.3411 348.5,28.5C 349.29,29.4013 350.29,30.0679 351.5,30.5C 354.833,32.1667 358.167,33.8333 361.5,35.5C 362.29,36.4013 363.29,37.0679 364.5,37.5C 367.5,39.5 370.5,41.5 373.5,43.5C 374.5,44.1667 375.5,44.8333 376.5,45.5C 379.357,47.7583 382.357,49.7583 385.5,51.5C 385.833,52.5 386.5,53.1667 387.5,53.5C 390.126,55.8235 392.793,58.1568 395.5,60.5C 396.167,61.8333 397.167,62.8333 398.5,63.5C 400.64,66.0613 402.973,68.3946 405.5,70.5C 406.167,71.8333 407.167,72.8333 408.5,73.5C 410.862,76.192 413.196,78.8587 415.5,81.5C 415.833,82.5 416.5,83.1667 417.5,83.5C 419.482,86.8103 421.815,89.8103 424.5,92.5C 424.932,93.7095 425.599,94.7095 426.5,95.5C 428.167,98.1667 429.833,100.833 431.5,103.5C 432.512,104.872 433.512,106.205 434.5,107.5C 435.913,110.661 437.58,113.661 439.5,116.5C 439.932,117.71 440.599,118.71 441.5,119.5C 442.659,123.151 444.326,126.485 446.5,129.5C 446.66,131.153 447.326,132.486 448.5,133.5C 449.492,136.823 450.492,140.156 451.5,143.5C 452.167,144.833 452.833,146.167 453.5,147.5C 454.664,151.659 455.997,155.659 457.5,159.5C 457.232,161.099 457.566,162.432 458.5,163.5C 459.167,167.5 459.833,171.5 460.5,175.5C 460.833,176.833 461.167,178.167 461.5,179.5C 461.925,183.908 462.592,188.242 463.5,192.5C 463.5,194.167 463.5,195.833 463.5,197.5C 463.5,202.5 463.5,207.5 463.5,212.5C 463.5,214.167 463.5,215.833 463.5,217.5C 463.676,222.88 463.342,228.213 462.5,233.5C 462.5,235.167 462.5,236.833 462.5,238.5C 461.063,244.784 459.729,251.117 458.5,257.5C 457.681,259.772 457.015,262.106 456.5,264.5C 454.163,271.845 451.829,279.178 449.5,286.5C 448.833,286.5 448.5,286.833 448.5,287.5C 447.501,290.162 446.501,292.828 445.5,295.5C 439.074,307.357 432.408,319.024 425.5,330.5C 424.833,330.5 424.5,330.833 424.5,331.5C 423.833,331.5 423.5,331.833 423.5,332.5C 422.833,332.5 422.5,332.833 422.5,333.5C 418.008,339.136 413.508,344.803 409,350.5C 358.167,401.333 307.333,452.167 256.5,503C 255.423,503.47 254.423,503.303 253.5,502.5C 251.5,499.833 249.167,497.5 246.5,495.5C 245.833,494.167 244.833,493.167 243.5,492.5C 241.5,489.833 239.167,487.5 236.5,485.5C 235.833,484.167 234.833,483.167 233.5,482.5C 231.5,479.833 229.167,477.5 226.5,475.5C 225.833,474.167 224.833,473.167 223.5,472.5C 221.5,469.833 219.167,467.5 216.5,465.5C 215.833,464.167 214.833,463.167 213.5,462.5C 211.5,459.833 209.167,457.5 206.5,455.5C 205.833,454.167 204.833,453.167 203.5,452.5C 201.5,449.833 199.167,447.5 196.5,445.5C 195.833,444.167 194.833,443.167 193.5,442.5C 191.5,439.833 189.167,437.5 186.5,435.5C 185.833,434.167 184.833,433.167 183.5,432.5C 181.5,429.833 179.167,427.5 176.5,425.5C 175.833,424.167 174.833,423.167 173.5,422.5C 171.5,419.833 169.167,417.5 166.5,415.5C 165.833,414.167 164.833,413.167 163.5,412.5C 161.5,409.833 159.167,407.5 156.5,405.5C 155.833,404.167 154.833,403.167 153.5,402.5C 151.5,399.833 149.167,397.5 146.5,395.5C 145.833,394.167 144.833,393.167 143.5,392.5C 141.5,389.833 139.167,387.5 136.5,385.5C 135.833,384.167 134.833,383.167 133.5,382.5C 131.5,379.833 129.167,377.5 126.5,375.5C 125.833,374.167 124.833,373.167 123.5,372.5C 121.5,369.833 119.167,367.5 116.5,365.5C 115.833,364.167 114.833,363.167 113.5,362.5C 111.5,359.833 109.167,357.5 106.5,355.5C 105.833,354.167 104.833,353.167 103.5,352.5C 101.157,349.793 98.8235,347.126 96.5,344.5C 96.1667,343.5 95.5,342.833 94.5,342.5C 92.7583,339.357 90.7583,336.357 88.5,333.5C 87.4884,332.128 86.4884,330.795 85.5,329.5C 83.8532,326.527 81.8532,323.86 79.5,321.5C 79.573,319.973 78.9063,318.973 77.5,318.5C 76.5903,315.008 74.9236,312.008 72.5,309.5C 72.3404,307.847 71.6737,306.514 70.5,305.5C 69.3411,301.849 67.6744,298.515 65.5,295.5C 65.4431,294.391 65.1098,293.391 64.5,292.5C 62.8911,288.946 61.5578,285.279 60.5,281.5C 60.0679,280.29 59.4013,279.29 58.5,278.5C 57.5,274.5 56.5,270.5 55.5,266.5C 55.0113,265.005 54.3446,263.671 53.5,262.5C 52.8333,258.5 52.1667,254.5 51.5,250.5C 50.7659,249.292 50.4326,247.959 50.5,246.5C 49.5103,242.228 48.8437,237.894 48.5,233.5C 48.7678,231.901 48.4345,230.568 47.5,229.5C 47.5,224.5 47.5,219.5 47.5,214.5C 47.5,212.833 47.5,211.167 47.5,209.5C 47.5,204.5 47.5,199.5 47.5,194.5C 47.8333,192.5 48.1667,190.5 48.5,188.5C 49.1667,182.833 49.8333,177.167 50.5,171.5C 51.1667,171.5 51.5,171.167 51.5,170.5C 51.8333,168.5 52.1667,166.5 52.5,164.5C 54.4943,157.515 56.4943,150.515 58.5,143.5C 59.1667,143.5 59.5,143.167 59.5,142.5C 60.8916,139.993 61.8916,137.327 62.5,134.5C 67.591,123.983 72.9244,113.65 78.5,103.5C 79.1667,103.5 79.5,103.167 79.5,102.5C 80.1667,102.5 80.5,102.167 80.5,101.5C 84.8582,95.4818 89.1915,89.4818 93.5,83.5C 103.167,72.5 113.5,62.1667 124.5,52.5C 129.815,48.8588 135.149,45.1921 140.5,41.5C 141.167,41.5 141.5,41.1667 141.5,40.5C 142.167,40.5 142.5,40.1667 142.5,39.5C 152.65,33.9244 162.983,28.591 173.5,23.5C 176.172,22.4986 178.838,21.4986 181.5,20.5C 182.167,20.5 182.5,20.1667 182.5,19.5C 189.499,17.5003 196.499,15.5003 203.5,13.5C 205.435,12.8505 207.435,12.5172 209.5,12.5C 210.167,12.5 210.5,12.1667 210.5,11.5C 216.546,10.7146 222.546,9.71461 228.5,8.5C 230.167,8.5 231.833,8.5 233.5,8.5C 234.167,8.5 234.5,8.16667 234.5,7.5 Z"/></g>
<g><path style="opacity:0.022" fill="#444440" d="M 511.5,25.5 C 511.5,27.1667 511.5,28.8333 511.5,30.5C 485.5,55.8333 459.833,81.5 434.5,107.5C 433.512,106.205 432.512,104.872 431.5,103.5C 432.239,103.631 432.906,103.464 433.5,103C 459.368,76.9651 485.368,51.1318 511.5,25.5 Z"/></g>
<g><path style="opacity:0.022" fill="#43443f" d="M 511.5,45.5 C 511.5,47.1667 511.5,48.8333 511.5,50.5C 488.167,73.5 464.833,96.5 441.5,119.5C 440.599,118.71 439.932,117.71 439.5,116.5C 463.5,92.8333 487.5,69.1667 511.5,45.5 Z"/></g>
<g><path style="opacity:1" fill="#3da69b" d="M 414.5,228.5 C 408.015,163.523 375.015,117.69 315.5,91C 252.953,68.4774 196.62,78.8107 146.5,122C 115.968,150.901 99.3018,186.401 96.5,228.5C 92.9775,168.377 115.311,120.21 163.5,84C 212.351,51.9808 264.017,46.6475 318.5,68C 374.113,94.0197 406.279,137.52 415,198.5C 415.825,208.675 415.658,218.675 414.5,228.5 Z"/></g>
<g><path style="opacity:0.022" fill="#43443f" d="M 511.5,65.5 C 511.5,67.1667 511.5,68.8333 511.5,70.5C 490.167,91.1667 469.167,112.167 448.5,133.5C 447.326,132.486 446.66,131.153 446.5,129.5C 468.167,108.167 489.833,86.8333 511.5,65.5 Z"/></g>
<g><path style="opacity:0.022" fill="#434340" d="M 93.5,83.5 C 89.1915,89.4818 84.8582,95.4818 80.5,101.5C 79.8333,101.5 79.5,101.833 79.5,102.5C 78.8333,102.5 78.5,102.833 78.5,103.5C 52.1667,129.5 25.8333,155.5 -0.5,181.5C -0.5,179.833 -0.5,178.167 -0.5,176.5C 30.8333,145.5 62.1667,114.5 93.5,83.5 Z"/></g>
<g><path style="opacity:0.022" fill="#444440" d="M 511.5,85.5 C 511.5,87.1667 511.5,88.8333 511.5,90.5C 492.167,109.5 472.833,128.5 453.5,147.5C 452.833,146.167 452.167,144.833 451.5,143.5C 452.239,143.631 452.906,143.464 453.5,143C 472.701,123.632 492.035,104.465 511.5,85.5 Z"/></g>
<g><path style="opacity:0.022" fill="#43443f" d="M 511.5,105.5 C 511.5,107.167 511.5,108.833 511.5,110.5C 493.5,127.833 475.833,145.5 458.5,163.5C 457.566,162.432 457.232,161.099 457.5,159.5C 475.167,141.167 493.167,123.167 511.5,105.5 Z"/></g>
<g><path style="opacity:0.022" fill="#43433f" d="M 511.5,125.5 C 511.5,127.167 511.5,128.833 511.5,130.5C 494.833,146.833 478.167,163.167 461.5,179.5C 461.167,178.167 460.833,176.833 460.5,175.5C 477.5,158.833 494.5,142.167 511.5,125.5 Z"/></g>
<g><path style="opacity:0.022" fill="#434340" d="M 62.5,134.5 C 61.8916,137.327 60.8916,139.993 59.5,142.5C 58.8333,142.5 58.5,142.833 58.5,143.5C 38.8333,162.833 19.1667,182.167 -0.5,201.5C -0.5,199.833 -0.5,198.167 -0.5,196.5C 20.5,175.833 41.5,155.167 62.5,134.5 Z"/></g>
<g><path style="opacity:0.022" fill="#43443f" d="M 511.5,145.5 C 511.5,147.167 511.5,148.833 511.5,150.5C 495.5,166.167 479.5,181.833 463.5,197.5C 463.5,195.833 463.5,194.167 463.5,192.5C 479.5,176.833 495.5,161.167 511.5,145.5 Z"/></g>
<g><path style="opacity:0.022" fill="#43443f" d="M 52.5,164.5 C 52.1667,166.5 51.8333,168.5 51.5,170.5C 50.8333,170.5 50.5,170.833 50.5,171.5C 33.5,188.167 16.5,204.833 -0.5,221.5C -0.5,219.833 -0.5,218.167 -0.5,216.5C 17.1667,199.167 34.8333,181.833 52.5,164.5 Z"/></g>
<g><path style="opacity:0.022" fill="#43443f" d="M 511.5,165.5 C 511.5,167.167 511.5,168.833 511.5,170.5C 495.5,186.167 479.5,201.833 463.5,217.5C 463.5,215.833 463.5,214.167 463.5,212.5C 479.5,196.833 495.5,181.167 511.5,165.5 Z"/></g>
<g><path style="opacity:0.022" fill="#43443f" d="M 511.5,185.5 C 511.5,187.167 511.5,188.833 511.5,190.5C 495.167,206.5 478.833,222.5 462.5,238.5C 462.5,236.833 462.5,235.167 462.5,233.5C 478.833,217.5 495.167,201.5 511.5,185.5 Z"/></g>
<g><path style="opacity:0.022" fill="#43443f" d="M 48.5,188.5 C 48.1667,190.5 47.8333,192.5 47.5,194.5C 31.5,210.167 15.5,225.833 -0.5,241.5C -0.5,239.833 -0.5,238.167 -0.5,236.5C 15.8333,220.5 32.1667,204.5 48.5,188.5 Z"/></g>
<g><path style="opacity:0.022" fill="#43443f" d="M 511.5,205.5 C 511.5,207.167 511.5,208.833 511.5,210.5C 493.167,228.5 474.833,246.5 456.5,264.5C 457.015,262.106 457.681,259.772 458.5,257.5C 476.167,240.167 493.833,222.833 511.5,205.5 Z"/></g>
<g><path style="opacity:0.022" fill="#43443f" d="M 47.5,209.5 C 47.5,211.167 47.5,212.833 47.5,214.5C 31.5,230.167 15.5,245.833 -0.5,261.5C -0.5,259.833 -0.5,258.167 -0.5,256.5C 15.5,240.833 31.5,225.167 47.5,209.5 Z"/></g>
<g><path style="opacity:0.022" fill="#43443f" d="M 511.5,225.5 C 511.5,227.167 511.5,228.833 511.5,230.5C 489.5,252.167 467.5,273.833 445.5,295.5C 446.501,292.828 447.501,290.162 448.5,287.5C 449.167,287.5 449.5,287.167 449.5,286.5C 470.167,266.167 490.833,245.833 511.5,225.5 Z"/></g>
<g><path style="opacity:0.022" fill="#444440" d="M 47.5,229.5 C 48.4345,230.568 48.7678,231.901 48.5,233.5C 32.1667,249.5 15.8333,265.5 -0.5,281.5C -0.5,279.833 -0.5,278.167 -0.5,276.5C 15.5,260.833 31.5,245.167 47.5,229.5 Z"/></g>
<g><path style="opacity:0.022" fill="#434340" d="M 511.5,245.5 C 511.5,247.167 511.5,248.833 511.5,250.5C 424.167,337.167 337.167,424.167 250.5,511.5C 248.833,511.5 247.167,511.5 245.5,511.5C 248.167,508.5 250.833,505.5 253.5,502.5C 254.423,503.303 255.423,503.47 256.5,503C 307.333,452.167 358.167,401.333 409,350.5C 413.508,344.803 418.008,339.136 422.5,333.5C 423.167,333.5 423.5,333.167 423.5,332.5C 424.167,332.5 424.5,332.167 424.5,331.5C 425.167,331.5 425.5,331.167 425.5,330.5C 454.167,302.167 482.833,273.833 511.5,245.5 Z"/></g>
<g><path style="opacity:0.022" fill="#43433f" d="M 50.5,246.5 C 50.4326,247.959 50.7659,249.292 51.5,250.5C 34.1667,267.5 16.8333,284.5 -0.5,301.5C -0.5,299.833 -0.5,298.167 -0.5,296.5C 16.5,279.833 33.5,263.167 50.5,246.5 Z"/></g>
<g><path style="opacity:0.022" fill="#444440" d="M 53.5,262.5 C 54.3446,263.671 55.0113,265.005 55.5,266.5C 36.8333,284.833 18.1667,303.167 -0.5,321.5C -0.5,319.833 -0.5,318.167 -0.5,316.5C 17.8333,298.833 35.8333,280.833 53.5,262.5 Z"/></g>
<g><path style="opacity:0.022" fill="#43443f" d="M 511.5,265.5 C 511.5,267.167 511.5,268.833 511.5,270.5C 430.833,350.5 350.5,430.833 270.5,511.5C 268.833,511.5 267.167,511.5 265.5,511.5C 347.167,429.167 429.167,347.167 511.5,265.5 Z"/></g>
<g><path style="opacity:0.022" fill="#43433f" d="M 58.5,278.5 C 59.4013,279.29 60.0679,280.29 60.5,281.5C 40.1667,301.5 19.8333,321.5 -0.5,341.5C -0.5,339.833 -0.5,338.167 -0.5,336.5C 19.1667,317.167 38.8333,297.833 58.5,278.5 Z"/></g>
<g><path style="opacity:1" fill="#47c0b4" d="M 414.5,228.5 C 406.936,294.89 372.27,340.723 310.5,366C 250.622,385.522 196.622,375.189 148.5,335C 117.406,306.31 100.072,270.81 96.5,228.5C 99.3018,186.401 115.968,150.901 146.5,122C 196.62,78.8107 252.953,68.4774 315.5,91C 375.015,117.69 408.015,163.523 414.5,228.5 Z"/></g>
<g><path style="opacity:1" fill="#f8b72b" d="M 172.5,135.5 C 177.152,134.984 180.652,136.651 183,140.5C 185.234,152.168 187.4,163.834 189.5,175.5C 241.501,175.333 293.501,175.5 345.5,176C 350.906,177.98 352.739,181.814 351,187.5C 345.412,216.109 340.078,244.776 335,273.5C 334.727,275.329 333.893,276.829 332.5,278C 287.226,279.651 241.892,279.985 196.5,279C 193.006,276.908 191.173,273.741 191,269.5C 183.089,227.354 175.255,185.187 167.5,143C 167.831,139.52 169.498,137.02 172.5,135.5 Z"/></g>
<g><path style="opacity:0.022" fill="#43443f" d="M 511.5,285.5 C 511.5,287.167 511.5,288.833 511.5,290.5C 437.5,363.833 363.833,437.5 290.5,511.5C 288.833,511.5 287.167,511.5 285.5,511.5C 360.5,435.833 435.833,360.5 511.5,285.5 Z"/></g>
<g><path style="opacity:0.022" fill="#43443f" d="M 64.5,292.5 C 65.1098,293.391 65.4431,294.391 65.5,295.5C 43.8333,317.833 21.8333,339.833 -0.5,361.5C -0.5,359.833 -0.5,358.167 -0.5,356.5C 21.1667,335.167 42.8333,313.833 64.5,292.5 Z"/></g>
<g><path style="opacity:0.022" fill="#43443f" d="M 70.5,305.5 C 71.6737,306.514 72.3404,307.847 72.5,309.5C 48.1667,333.5 23.8333,357.5 -0.5,381.5C -0.5,379.833 -0.5,378.167 -0.5,376.5C 23.5,353.167 47.1667,329.5 70.5,305.5 Z"/></g>
<g><path style="opacity:1" fill="#f6b72d" d="M 218.5,295.5 C 234.191,295.012 240.691,302.345 238,317.5C 234.096,325.783 227.596,328.95 218.5,327C 207.531,320.955 205.031,312.455 211,301.5C 213.478,299.361 215.978,297.361 218.5,295.5 Z"/></g>
<g><path style="opacity:1" fill="#f6b72d" d="M 298.5,295.5 C 314.191,295.012 320.691,302.345 318,317.5C 314.096,325.783 307.596,328.95 298.5,327C 287.531,320.955 285.031,312.455 291,301.5C 293.478,299.361 295.978,297.361 298.5,295.5 Z"/></g>
<g><path style="opacity:0.022" fill="#43443f" d="M 511.5,305.5 C 511.5,307.167 511.5,308.833 511.5,310.5C 444.167,377.167 377.167,444.167 310.5,511.5C 308.833,511.5 307.167,511.5 305.5,511.5C 373.833,442.5 442.5,373.833 511.5,305.5 Z"/></g>
<g><path style="opacity:0.022" fill="#43443f" d="M 77.5,318.5 C 78.9063,318.973 79.573,319.973 79.5,321.5C 53.1667,348.5 26.5,375.167 -0.5,401.5C -0.5,399.833 -0.5,398.167 -0.5,396.5C 25.8333,370.833 51.8333,344.833 77.5,318.5 Z"/></g>
<g><path style="opacity:0.022" fill="#43443f" d="M 511.5,325.5 C 511.5,327.167 511.5,328.833 511.5,330.5C 450.833,390.5 390.5,450.833 330.5,511.5C 328.833,511.5 327.167,511.5 325.5,511.5C 387.167,449.167 449.167,387.167 511.5,325.5 Z"/></g>
<g><path style="opacity:0.022" fill="#43433f" d="M 85.5,329.5 C 86.4884,330.795 87.4884,332.128 88.5,333.5C 58.8333,362.833 29.1667,392.167 -0.5,421.5C -0.5,419.833 -0.5,418.167 -0.5,416.5C 28.8836,388.117 57.5502,359.117 85.5,329.5 Z"/></g>
<g><path style="opacity:0.022" fill="#43443f" d="M 94.5,342.5 C 95.5,342.833 96.1667,343.5 96.5,344.5C 64.5,377.167 32.1667,409.5 -0.5,441.5C -0.5,439.833 -0.5,438.167 -0.5,436.5C 31.1667,405.167 62.8333,373.833 94.5,342.5 Z"/></g>
<g><path style="opacity:0.022" fill="#43443f" d="M 511.5,345.5 C 511.5,347.167 511.5,348.833 511.5,350.5C 457.5,403.833 403.833,457.5 350.5,511.5C 348.833,511.5 347.167,511.5 345.5,511.5C 400.5,455.833 455.833,400.5 511.5,345.5 Z"/></g>
<g><path style="opacity:0.022" fill="#43443f" d="M 103.5,352.5 C 104.833,353.167 105.833,354.167 106.5,355.5C 70.8333,390.833 35.1667,426.167 -0.5,461.5C -0.5,459.833 -0.5,458.167 -0.5,456.5C 34.5,422.167 69.1667,387.5 103.5,352.5 Z"/></g>
<g><path style="opacity:0.022" fill="#43443f" d="M 113.5,362.5 C 114.833,363.167 115.833,364.167 116.5,365.5C 77.5,404.167 38.5,442.833 -0.5,481.5C -0.5,479.833 -0.5,478.167 -0.5,476.5C 37.8333,438.833 75.8333,400.833 113.5,362.5 Z"/></g>
<g><path style="opacity:0.022" fill="#43443f" d="M 511.5,365.5 C 511.5,367.167 511.5,368.833 511.5,370.5C 464.167,417.167 417.167,464.167 370.5,511.5C 368.833,511.5 367.167,511.5 365.5,511.5C 413.833,462.5 462.5,413.833 511.5,365.5 Z"/></g>
<g><path style="opacity:0.022" fill="#43443f" d="M 123.5,372.5 C 124.833,373.167 125.833,374.167 126.5,375.5C 84.1667,417.5 41.8333,459.5 -0.5,501.5C -0.5,499.833 -0.5,498.167 -0.5,496.5C 41.1667,455.5 82.5,414.167 123.5,372.5 Z"/></g>
<g><path style="opacity:0.022" fill="#43443f" d="M 133.5,382.5 C 134.833,383.167 135.833,384.167 136.5,385.5C 94.1667,427.167 52.1667,469.167 10.5,511.5C 8.83333,511.5 7.16667,511.5 5.5,511.5C 48.1667,468.5 90.8333,425.5 133.5,382.5 Z"/></g>
<g><path style="opacity:0.022" fill="#43443f" d="M 511.5,385.5 C 511.5,387.167 511.5,388.833 511.5,390.5C 470.833,430.5 430.5,470.833 390.5,511.5C 388.833,511.5 387.167,511.5 385.5,511.5C 427.167,469.167 469.167,427.167 511.5,385.5 Z"/></g>
<g><path style="opacity:0.022" fill="#43443f" d="M 143.5,392.5 C 144.833,393.167 145.833,394.167 146.5,395.5C 107.5,433.833 68.8333,472.5 30.5,511.5C 28.8333,511.5 27.1667,511.5 25.5,511.5C 64.8333,471.833 104.167,432.167 143.5,392.5 Z"/></g>
<g><path style="opacity:0.022" fill="#43443f" d="M 153.5,402.5 C 154.833,403.167 155.833,404.167 156.5,405.5C 120.833,440.5 85.5,475.833 50.5,511.5C 48.8333,511.5 47.1667,511.5 45.5,511.5C 81.5,475.167 117.5,438.833 153.5,402.5 Z"/></g>
<g><path style="opacity:0.022" fill="#43443f" d="M 511.5,405.5 C 511.5,407.167 511.5,408.833 511.5,410.5C 477.5,443.833 443.833,477.5 410.5,511.5C 408.833,511.5 407.167,511.5 405.5,511.5C 440.5,475.833 475.833,440.5 511.5,405.5 Z"/></g>
<g><path style="opacity:0.022" fill="#43443f" d="M 163.5,412.5 C 164.833,413.167 165.833,414.167 166.5,415.5C 134.167,447.167 102.167,479.167 70.5,511.5C 68.8333,511.5 67.1667,511.5 65.5,511.5C 98.1667,478.5 130.833,445.5 163.5,412.5 Z"/></g>
<g><path style="opacity:0.022" fill="#43443f" d="M 173.5,422.5 C 174.833,423.167 175.833,424.167 176.5,425.5C 147.5,453.833 118.833,482.5 90.5,511.5C 88.8333,511.5 87.1667,511.5 85.5,511.5C 114.833,481.833 144.167,452.167 173.5,422.5 Z"/></g>
<g><path style="opacity:0.022" fill="#43443f" d="M 511.5,425.5 C 511.5,427.167 511.5,428.833 511.5,430.5C 484.167,457.167 457.167,484.167 430.5,511.5C 428.833,511.5 427.167,511.5 425.5,511.5C 453.833,482.5 482.5,453.833 511.5,425.5 Z"/></g>
<g><path style="opacity:0.022" fill="#43443f" d="M 183.5,432.5 C 184.833,433.167 185.833,434.167 186.5,435.5C 160.833,460.5 135.5,485.833 110.5,511.5C 108.833,511.5 107.167,511.5 105.5,511.5C 131.5,485.167 157.5,458.833 183.5,432.5 Z"/></g>
<g><path style="opacity:0.022" fill="#43443f" d="M 193.5,442.5 C 194.833,443.167 195.833,444.167 196.5,445.5C 174.167,467.167 152.167,489.167 130.5,511.5C 128.833,511.5 127.167,511.5 125.5,511.5C 148.167,488.5 170.833,465.5 193.5,442.5 Z"/></g>
<g><path style="opacity:0.022" fill="#43443f" d="M 511.5,445.5 C 511.5,447.167 511.5,448.833 511.5,450.5C 490.833,470.5 470.5,490.833 450.5,511.5C 448.833,511.5 447.167,511.5 445.5,511.5C 467.167,489.167 489.167,467.167 511.5,445.5 Z"/></g>
<g><path style="opacity:0.022" fill="#43443f" d="M 203.5,452.5 C 204.833,453.167 205.833,454.167 206.5,455.5C 187.5,473.833 168.833,492.5 150.5,511.5C 148.833,511.5 147.167,511.5 145.5,511.5C 164.833,491.833 184.167,472.167 203.5,452.5 Z"/></g>
<g><path style="opacity:0.022" fill="#43443f" d="M 213.5,462.5 C 214.833,463.167 215.833,464.167 216.5,465.5C 200.833,480.5 185.5,495.833 170.5,511.5C 168.833,511.5 167.167,511.5 165.5,511.5C 181.5,495.167 197.5,478.833 213.5,462.5 Z"/></g>
<g><path style="opacity:0.022" fill="#43443f" d="M 511.5,465.5 C 511.5,467.167 511.5,468.833 511.5,470.5C 497.5,483.833 483.833,497.5 470.5,511.5C 468.833,511.5 467.167,511.5 465.5,511.5C 480.5,495.833 495.833,480.5 511.5,465.5 Z"/></g>
<g><path style="opacity:0.022" fill="#43443f" d="M 223.5,472.5 C 224.833,473.167 225.833,474.167 226.5,475.5C 214.167,487.167 202.167,499.167 190.5,511.5C 188.833,511.5 187.167,511.5 185.5,511.5C 198.167,498.5 210.833,485.5 223.5,472.5 Z"/></g>
<g><path style="opacity:0.022" fill="#43443f" d="M 233.5,482.5 C 234.833,483.167 235.833,484.167 236.5,485.5C 227.5,493.833 218.833,502.5 210.5,511.5C 208.833,511.5 207.167,511.5 205.5,511.5C 214.833,501.833 224.167,492.167 233.5,482.5 Z"/></g>
<g><path style="opacity:0.022" fill="#43443f" d="M 511.5,485.5 C 511.5,487.167 511.5,488.833 511.5,490.5C 504.167,497.167 497.167,504.167 490.5,511.5C 488.833,511.5 487.167,511.5 485.5,511.5C 493.833,502.5 502.5,493.833 511.5,485.5 Z"/></g>
<g><path style="opacity:0.022" fill="#43443f" d="M 243.5,492.5 C 244.833,493.167 245.833,494.167 246.5,495.5C 240.833,500.5 235.5,505.833 230.5,511.5C 228.833,511.5 227.167,511.5 225.5,511.5C 231.5,505.167 237.5,498.833 243.5,492.5 Z"/></g>
<g><path style="opacity:0.022" fill="#43443f" d="M 511.5,505.5 C 511.5,507.167 511.5,508.833 511.5,510.5C 510.833,510.5 510.5,510.833 510.5,511.5C 508.833,511.5 507.167,511.5 505.5,511.5C 507.167,509.167 509.167,507.167 511.5,505.5 Z"/></g>
</svg>
