<?xml version="1.0" encoding="UTF-8"?>
<!DOCTYPE svg PUBLIC "-//W3C//DTD SVG 1.1//EN" "http://www.w3.org/Graphics/SVG/1.1/DTD/svg11.dtd">
<svg xmlns="http://www.w3.org/2000/svg" version="1.1" width="726px" height="479px" style="shape-rendering:geometricPrecision; text-rendering:geometricPrecision; image-rendering:optimizeQuality; fill-rule:evenodd; clip-rule:evenodd" xmlns:xlink="http://www.w3.org/1999/xlink">
<g><path style="opacity:0.996" fill="#957d31" d="M 433.5,340.5 C 430.5,340.5 427.5,340.5 424.5,340.5C 408.479,348.001 391.813,353.501 374.5,357C 373.328,357.419 372.328,358.085 371.5,359C 359.501,360.31 347.501,361.477 335.5,362.5C 325.497,361.832 315.497,361.166 305.5,360.5C 295.68,358.651 286.014,356.484 276.5,354C 268.337,350.386 260.337,346.386 252.5,342C 250.26,341.023 247.927,340.523 245.5,340.5C 243.167,340.5 240.833,340.5 238.5,340.5C 235.539,337.052 231.873,334.552 227.5,333C 226.833,332 226.167,331 225.5,330C 222.91,328.555 220.243,327.388 217.5,326.5C 217.5,325.5 217.5,324.5 217.5,323.5C 208.609,316.781 200.442,309.114 193,300.5C 188.274,293.242 183.274,286.242 178,279.5C 175.76,276.276 174.593,272.61 174.5,268.5C 173.5,268.5 172.5,268.5 171.5,268.5C 171.5,266.5 171.5,264.5 171.5,262.5C 170.5,262.5 169.5,262.5 168.5,262.5C 168.337,260.143 168.503,257.81 169,255.5C 169.9,254.23 171.066,253.23 172.5,252.5C 167.817,242.639 163.65,232.639 160,222.5C 157.072,212.772 155.072,202.772 154,192.5C 154.754,180.288 155.587,167.955 156.5,155.5C 157.5,155.5 158.5,155.5 159.5,155.5C 159.334,151.486 159.501,147.486 160,143.5C 161.576,140.106 163.242,136.772 165,133.5C 165.118,128.062 166.285,123.062 168.5,118.5C 169.5,118.5 170.5,118.5 171.5,118.5C 171.5,116.5 171.5,114.5 171.5,112.5C 172.5,112.5 173.5,112.5 174.5,112.5C 174.593,108.39 175.76,104.724 178,101.5C 183.834,93.7884 189.834,85.4551 196,76.5C 197.973,75.3601 199.807,74.0267 201.5,72.5C 206.108,67.9231 210.441,63.0898 214.5,58C 223.079,52.4327 231.413,46.4327 239.5,40C 241.134,39.5065 242.801,39.3398 244.5,39.5C 244.281,38.325 244.614,37.325 245.5,36.5C 253.603,32.1142 261.937,28.2808 270.5,25C 276.338,23.2069 282.338,21.8735 288.5,21C 289.167,20.3333 289.833,19.6667 290.5,19C 294.5,18.6667 298.5,18.3333 302.5,18C 302.957,17.586 303.291,17.086 303.5,16.5C 325.159,15.3336 346.826,15.1669 368.5,16C 369.167,16.6667 369.833,17.3333 370.5,18C 374.833,18.3333 379.167,18.6667 383.5,19C 386.833,20.6667 390.167,22.3333 393.5,24C 395.5,24.3333 397.5,24.6667 399.5,25C 403.004,27.7996 407.004,29.7996 411.5,31C 412.833,31.6667 412.833,32.3333 411.5,33C 414.345,33.5382 417.012,34.5382 419.5,36C 423.614,40.1148 428.28,43.4482 433.5,46C 437.584,49.6667 441.417,53.5 445,57.5C 447.455,56.0483 450.122,55.0483 453,54.5C 454.541,56.0173 456.375,57.1839 458.5,58C 463.774,64.8181 469.774,70.9848 476.5,76.5C 480.59,82.5902 484.756,87.9235 489,92.5C 491.256,97.9181 494.256,102.918 498,107.5C 498.494,109.134 498.66,110.801 498.5,112.5C 499.5,112.5 500.5,112.5 501.5,112.5C 502.725,116.75 503.891,121.083 505,125.5C 506.667,128.833 508.333,132.167 510,135.5C 510.333,138.167 510.667,140.833 511,143.5C 512.74,144.716 513.74,146.382 514,148.5C 516.057,158.626 517.057,168.959 517,179.5C 517.667,180.833 518.333,180.833 519,179.5C 519.667,186.833 519.667,194.167 519,201.5C 518.586,201.043 518.086,200.709 517.5,200.5C 516.989,212.64 515.489,224.64 513,236.5C 510.908,239.373 509.908,242.707 510,246.5C 509.333,247.167 508.667,247.833 508,248.5C 506.662,252.836 505.328,257.169 504,261.5C 502,265.5 500,269.5 498,273.5C 491.887,284.308 484.887,294.641 477,304.5C 475.414,305.376 473.914,306.376 472.5,307.5C 467.747,312.622 463.081,317.789 458.5,323C 450.457,329.346 442.124,335.179 433.5,340.5 Z M 198.5,112.5 C 198.843,114.483 198.176,115.817 196.5,116.5C 196.157,114.517 196.824,113.183 198.5,112.5 Z M 204.5,103.5 C 204.715,105.179 204.048,106.179 202.5,106.5C 202.285,104.821 202.952,103.821 204.5,103.5 Z M 284.5,43.5 C 283.713,45.1042 282.38,45.7709 280.5,45.5C 281.287,43.8958 282.62,43.2291 284.5,43.5 Z M 312.5,37.5 C 309.316,39.4136 305.649,40.0803 301.5,39.5C 301.611,38.8826 301.944,38.3826 302.5,38C 305.817,37.5017 309.15,37.335 312.5,37.5 Z M 321.5,36.5 C 331.325,35.3417 341.325,35.1751 351.5,36C 357.753,37.0869 364.087,37.9202 370.5,38.5C 370.709,39.086 371.043,39.586 371.5,40C 378.355,40.9972 385.022,42.4972 391.5,44.5C 391.977,45.4776 392.643,46.3109 393.5,47C 398.86,47.666 403.527,49.666 407.5,53C 421.008,58.4119 433.008,66.0785 443.5,76C 444.448,76.4828 445.448,76.6495 446.5,76.5C 446.351,77.552 446.517,78.552 447,79.5C 448.506,81.1742 450.339,82.1742 452.5,82.5C 452.351,83.552 452.517,84.552 453,85.5C 460.491,91.9087 466.157,99.5754 470,108.5C 471.011,109.337 472.178,109.67 473.5,109.5C 473.178,111.722 473.845,113.556 475.5,115C 478.803,115.215 481.97,115.382 485,115.5C 486.476,120.014 487.476,124.681 488,129.5C 488.667,130.833 489.667,131.833 491,132.5C 492.603,141.016 493.77,149.682 494.5,158.5C 494.492,162.329 494.159,166.162 493.5,170C 494.126,170.75 494.626,171.584 495,172.5C 495.333,172.167 495.667,171.833 496,171.5C 496.971,177.793 497.471,184.126 497.5,190.5C 495.34,200.294 494.006,210.961 493.5,222.5C 493.507,209.688 493.34,196.688 493,183.5C 492.82,180.044 492.153,176.711 491,173.5C 490.667,173.833 490.333,174.167 490,174.5C 489.38,168.118 488.547,161.784 487.5,155.5C 484.422,148.538 482.255,141.205 481,133.5C 476.311,123.726 470.978,114.059 465,104.5C 461.844,102.68 459.844,100.013 459,96.5C 452.316,89.1825 445.983,82.1825 440,75.5C 439.667,75.8333 439.333,76.1667 439,76.5C 434.312,72.3114 429.479,68.3114 424.5,64.5C 422.929,63.6906 421.262,63.3573 419.5,63.5C 419.5,62.5 419.5,61.5 419.5,60.5C 417.712,60.7852 416.045,60.4519 414.5,59.5C 406.077,53.9688 397.077,49.4688 387.5,46C 384.447,45.8214 381.447,45.3214 378.5,44.5C 377.619,43.0295 376.286,42.1962 374.5,42C 366.044,40.0265 357.377,39.0265 348.5,39C 348.833,38.6667 349.167,38.3333 349.5,38C 340.248,36.5828 330.915,36.0828 321.5,36.5 Z M 196.5,117.5 C 196.047,119.565 195.047,121.232 193.5,122.5C 193.592,120.152 194.592,118.486 196.5,117.5 Z M 193.5,123.5 C 193.231,126.015 192.231,128.015 190.5,129.5C 190.34,127.801 190.506,126.134 191,124.5C 191.671,123.748 192.504,123.414 193.5,123.5 Z M 190.5,129.5 C 187.166,140.509 184,151.509 181,162.5C 179.836,182.683 180.502,202.683 183,222.5C 183.833,223.5 184.667,224.5 185.5,225.5C 186.263,230.665 187.43,235.665 189,240.5C 189.71,241.973 190.876,242.64 192.5,242.5C 192.338,244.527 192.505,246.527 193,248.5C 200.091,261.188 208.258,273.022 217.5,284C 218.448,284.483 219.448,284.649 220.5,284.5C 220.833,288.167 222.833,290.167 226.5,290.5C 226.351,291.552 226.517,292.552 227,293.5C 228.506,295.174 230.339,296.174 232.5,296.5C 232.626,299.595 234.293,301.428 237.5,302C 238.252,302.671 238.586,303.504 238.5,304.5C 249.104,313.626 260.437,321.793 272.5,329C 282.332,333.505 292.332,337.338 302.5,340.5C 300.167,340.5 297.833,340.5 295.5,340.5C 291.302,338.204 286.636,337.037 281.5,337C 280.833,336 280.167,335 279.5,334C 275.02,332.349 270.353,331.182 265.5,330.5C 265.023,329.522 264.357,328.689 263.5,328C 259.124,327.178 254.791,326.178 250.5,325C 251.458,323.853 251.125,322.853 249.5,322C 247.833,321.667 246.167,321.333 244.5,321C 240.076,317.455 235.076,314.955 229.5,313.5C 229.5,312.5 229.5,311.5 229.5,310.5C 227.692,310.509 226.025,310.009 224.5,309C 222.401,306.233 219.734,304.233 216.5,303C 219.951,300.428 220.451,297.261 218,293.5C 216.989,292.663 215.822,292.33 214.5,292.5C 213.617,290.09 212.45,287.757 211,285.5C 206.051,279.793 201.551,273.793 197.5,267.5C 195.815,264.705 194.649,261.705 194,258.5C 193,257.833 192,257.167 191,256.5C 189.526,252.662 188.526,248.662 188,244.5C 187.667,243.833 187.333,243.167 187,242.5C 186.333,243.833 185.667,243.833 185,242.5C 183.523,237.312 182.523,231.979 182,226.5C 181.333,225.167 180.333,224.167 179,223.5C 178.516,212.248 177.682,201.082 176.5,190C 177.457,179.218 178.29,168.384 179,157.5C 180.397,156.774 181.231,155.607 181.5,154C 182.72,148.808 183.886,143.641 185,138.5C 186.947,135.37 188.781,132.37 190.5,129.5 Z M 311.5,86.5 C 309.611,87.322 307.611,88.1553 305.5,89C 305.833,89.3333 306.167,89.6667 306.5,90C 301.864,90.7318 297.531,91.8985 293.5,93.5C 293.5,94.5 293.5,95.5 293.5,96.5C 292.022,96.238 290.689,96.5713 289.5,97.5C 287.703,98.6951 286.703,100.362 286.5,102.5C 285.448,102.351 284.448,102.517 283.5,103C 279.856,107.394 276.022,111.561 272,115.5C 269.797,118.215 267.963,121.215 266.5,124.5C 266.031,119.813 263.698,118.48 259.5,120.5C 256.995,124.661 253.828,128.328 250,131.5C 249.506,133.134 249.34,134.801 249.5,136.5C 248.5,136.5 247.5,136.5 246.5,136.5C 244.638,143.234 241.805,149.567 238,155.5C 232.637,171.679 230.637,188.346 232,205.5C 232.938,214.555 234.771,223.222 237.5,231.5C 237.19,232.738 236.69,232.738 236,231.5C 234.156,228.467 233.156,225.134 233,221.5C 232.333,220.167 231.667,220.167 231,221.5C 229.706,220.146 229.54,218.812 230.5,217.5C 228.381,211.948 226.715,206.281 225.5,200.5C 224.334,190.183 224.168,179.849 225,169.5C 226.016,170.634 226.683,170.301 227,168.5C 226.975,162.032 228.142,155.865 230.5,150C 231.009,148.831 231.842,147.998 233,147.5C 233.531,143.991 234.531,140.658 236,137.5C 239.006,134.805 240.839,131.472 241.5,127.5C 242.822,127.67 243.989,127.337 245,126.5C 245.233,124.22 246.066,122.22 247.5,120.5C 251.046,117.222 254.379,113.722 257.5,110C 262.563,106.479 267.563,102.979 272.5,99.5C 274.078,98.7022 275.744,98.2022 277.5,98C 278.337,96.9887 278.67,95.8221 278.5,94.5C 282.465,93.6312 286.465,92.7979 290.5,92C 291.357,91.3109 292.023,90.4776 292.5,89.5C 295.64,88.9095 298.64,88.0761 301.5,87C 304.817,86.5017 308.15,86.335 311.5,86.5 Z M 251.5,157.5 C 253.978,159.483 254.145,161.816 252,164.5C 251.503,162.19 251.337,159.857 251.5,157.5 Z M 334.5,111.5 C 343.009,110.179 351.675,110.179 360.5,111.5C 366.736,113.109 373.069,114.609 379.5,116C 382.936,118.883 386.936,120.883 391.5,122C 392.833,122.667 392.833,123.333 391.5,124C 394.726,124.885 397.726,126.219 400.5,128C 406.3,133.635 411.967,139.468 417.5,145.5C 422.511,152.805 426.678,160.472 430,168.5C 430.333,172.167 430.667,175.833 431,179.5C 433.142,180.476 434.308,182.143 434.5,184.5C 433.188,190.674 433.188,196.84 434.5,203C 433.902,205.479 432.735,207.646 431,209.5C 430.795,215.06 429.795,220.393 428,225.5C 427,226.167 426,226.833 425,227.5C 424.884,230.932 423.717,233.932 421.5,236.5C 416.966,241.525 412.799,246.858 409,252.5C 401.45,258.19 394.283,263.357 387.5,268C 383.983,269.529 380.317,270.529 376.5,271C 375.09,271.368 374.09,272.201 373.5,273.5C 356.537,277.289 339.537,277.456 322.5,274C 319.359,270.372 315.692,269.705 311.5,272C 310.167,273.333 310.167,274.667 311.5,276C 309.071,275.802 306.738,274.969 304.5,273.5C 299.233,269.019 293.567,265.019 287.5,261.5C 283.202,258.251 279.702,254.251 277,249.5C 276.333,250.833 275.667,250.833 275,249.5C 270.496,242.491 265.996,235.491 261.5,228.5C 261.667,228.167 261.833,227.833 262,227.5C 263.789,229.229 265.956,229.896 268.5,229.5C 267.534,224.415 266.201,219.415 264.5,214.5C 263.897,207.345 262.897,200.345 261.5,193.5C 263.077,186.352 263.91,179.019 264,171.5C 264.667,172.833 265.333,172.833 266,171.5C 267.333,166.5 268.667,161.5 270,156.5C 270.667,157.833 271.333,157.833 272,156.5C 274.506,150.483 277.506,145.15 281,140.5C 285.147,136.022 289.647,131.855 294.5,128C 296.789,126.752 299.123,125.585 301.5,124.5C 302.386,123.675 302.719,122.675 302.5,121.5C 307.323,120.944 311.656,119.111 315.5,116C 321.375,114.404 327.375,113.404 333.5,113C 334.167,112.667 334.833,112.333 335.5,112C 335.272,111.601 334.938,111.435 334.5,111.5 Z M 254.5,147.5 C 255.598,148.601 255.765,149.934 255,151.5C 253.489,150.436 253.323,149.103 254.5,147.5 Z M 257.5,139.5 C 259.973,139.947 260.14,140.947 258,142.5C 257.517,141.552 257.351,140.552 257.5,139.5 Z M 364.5,73.5 C 371.912,74.1362 379.245,75.3029 386.5,77C 387.167,78.3333 388.167,79.3333 389.5,80C 393.5,81 397.5,82 401.5,83C 402.167,84 402.833,85 403.5,86C 406.779,87.1486 410.113,87.9819 413.5,88.5C 413.33,89.8221 413.663,90.9887 414.5,92C 418.459,92.364 421.459,94.1973 423.5,97.5C 425.167,98.1667 426.833,98.8333 428.5,99.5C 434.669,106.169 441.169,112.502 448,118.5C 452.322,124.492 456.655,130.492 461,136.5C 462.462,138.988 463.462,141.655 464,144.5C 465,145.167 466,145.833 467,146.5C 468.355,150.409 469.355,154.409 470,158.5C 470.816,159.823 471.983,160.489 473.5,160.5C 475.327,173.332 475.827,186.332 475,199.5C 473.717,204.657 473.05,209.99 473,215.5C 472,216.5 471,217.5 470,218.5C 469.284,223.888 468.284,229.222 467,234.5C 466.311,235.357 465.478,236.023 464.5,236.5C 462.774,242.937 460.274,248.937 457,254.5C 456.667,254.167 456.333,253.833 456,253.5C 454.632,254.993 454.465,256.493 455.5,258C 451.637,261.544 448.47,265.711 446,270.5C 436.681,279.932 427.514,288.765 418.5,297C 415.614,297.606 413.448,299.106 412,301.5C 410.951,300.483 409.784,300.316 408.5,301C 407.167,301.667 407.167,302.333 408.5,303C 403.611,305.362 398.777,307.862 394,310.5C 392.173,309.816 390.673,310.483 389.5,312.5C 384.482,314.787 379.149,315.954 373.5,316C 372.09,316.368 371.09,317.201 370.5,318.5C 355.05,321.318 339.383,322.151 323.5,321C 318.311,319.879 312.978,319.045 307.5,318.5C 306.91,317.201 305.91,316.368 304.5,316C 298.492,315.097 292.492,314.264 286.5,313.5C 286.5,312.5 286.5,311.5 286.5,310.5C 282.063,309.76 277.73,308.593 273.5,307C 265.235,302.063 256.569,296.896 247.5,291.5C 246.712,288.379 244.712,286.712 241.5,286.5C 238.342,282.171 235.509,277.504 233,272.5C 232,271.833 231,271.167 230,270.5C 224.716,259.662 220.049,249.328 216,239.5C 213.645,226.622 211.145,213.789 208.5,201C 208.667,198.5 208.833,196 209,193.5C 209.278,192.584 209.778,191.918 210.5,191.5C 209.24,201.848 211.073,211.515 216,220.5C 216.333,222.833 216.667,225.167 217,227.5C 220.583,235.139 224.749,242.472 229.5,249.5C 233.214,253.711 237.047,257.711 241,261.5C 242.438,262.9 243.271,264.567 243.5,266.5C 244.552,266.351 245.552,266.517 246.5,267C 247.833,267.667 247.833,268.333 246.5,269C 250.815,271.106 254.481,274.106 257.5,278C 263.416,281.284 269.249,284.784 275,288.5C 276.364,287.742 277.531,288.242 278.5,290C 280.5,290.333 282.5,290.667 284.5,291C 284.167,291.333 283.833,291.667 283.5,292C 284.672,292.419 285.672,293.085 286.5,294C 291.279,295.728 296.279,296.728 301.5,297C 300.366,298.016 300.699,298.683 302.5,299C 310.051,301.068 317.717,302.235 325.5,302.5C 324.047,303.825 324.381,304.658 326.5,305C 340.5,305.667 354.5,305.667 368.5,305C 370.301,304.683 370.634,304.016 369.5,303C 373.167,302.667 376.833,302.333 380.5,302C 382.956,300.289 385.623,298.956 388.5,298C 389.747,296.542 389.747,295.042 388.5,293.5C 386.816,292.85 385.483,291.85 384.5,290.5C 388.833,290.5 393.167,290.5 397.5,290.5C 402.661,289.017 407.994,288.017 413.5,287.5C 413.5,286.5 413.5,285.5 413.5,284.5C 414.873,284.657 416.207,284.49 417.5,284C 425.591,276.675 433.424,269.175 441,261.5C 445.296,255.44 449.13,249.107 452.5,242.5C 453.8,238.057 455.3,233.724 457,229.5C 457.667,228.833 458.333,228.167 459,227.5C 459.499,223.848 459.665,220.182 459.5,216.5C 460.5,216.5 461.5,216.5 462.5,216.5C 462.667,201.83 462.5,187.163 462,172.5C 461.586,172.043 461.086,171.709 460.5,171.5C 459.675,167.878 459.175,164.211 459,160.5C 458.329,159.748 457.496,159.414 456.5,159.5C 455.886,154.648 454.72,149.982 453,145.5C 451.191,143.286 449.524,140.952 448,138.5C 447.667,136.833 447.333,135.167 447,133.5C 446.31,132.262 445.81,132.262 445.5,133.5C 442.253,126.91 438.42,120.577 434,114.5C 433.667,114.833 433.333,115.167 433,115.5C 423.297,104.119 412.131,94.619 399.5,87C 388.196,81.4179 376.529,76.9179 364.5,73.5 Z M 331.5,82.5 C 326.944,84.4417 321.944,85.1083 316.5,84.5C 316.611,83.8826 316.944,83.3826 317.5,83C 322.155,82.5008 326.821,82.3342 331.5,82.5 Z M 361.5,72.5 C 357.298,72.8168 353.298,72.4834 349.5,71.5C 353.758,69.9383 357.758,70.2716 361.5,72.5 Z M 383.5,61.5 C 386.01,61.0535 388.01,61.7202 389.5,63.5C 386.99,63.9465 384.99,63.2798 383.5,61.5 Z M 381.5,60.5 C 376.806,61.1045 372.472,60.2711 368.5,58C 347.214,56.5572 326.214,57.7239 305.5,61.5C 305.291,62.086 304.957,62.586 304.5,63C 301.5,63.3333 298.5,63.6667 295.5,64C 286.632,67.8783 277.632,71.8783 268.5,76C 266.353,78.1683 263.353,80.1683 259.5,82C 250.112,88.7716 241.612,95.9383 234,103.5C 230.647,107.193 227.647,111.193 225,115.5C 224.333,114.167 223.667,114.167 223,115.5C 221.278,118.279 220.111,121.279 219.5,124.5C 218.5,124.5 217.5,124.5 216.5,124.5C 216.657,125.873 216.49,127.207 216,128.5C 212.842,131.957 211.009,135.957 210.5,140.5C 209.5,140.5 208.5,140.5 207.5,140.5C 207.66,142.199 207.494,143.866 207,145.5C 204.014,152.348 201.348,159.348 199,166.5C 198.896,172.348 197.896,178.014 196,183.5C 195.5,189.825 195.334,196.158 195.5,202.5C 194.341,192.008 194.175,181.341 195,170.5C 196.279,165.679 196.946,160.679 197,155.5C 198,154.833 199,154.167 200,153.5C 200.565,148.039 201.732,142.705 203.5,137.5C 206.064,133.495 208.064,129.161 209.5,124.5C 210.478,124.023 211.311,123.357 212,122.5C 213.162,118.089 215.162,114.089 218,110.5C 221.427,105.992 225.093,101.658 229,97.5C 229.483,96.552 229.649,95.552 229.5,94.5C 231.433,94.2714 233.1,93.4381 234.5,92C 235.337,90.9887 235.67,89.8221 235.5,88.5C 238.101,87.7204 240.101,86.0537 241.5,83.5C 251.113,76.9716 260.613,70.6383 270,64.5C 271.507,65.5348 273.007,65.3681 274.5,64C 275.833,63.3333 275.833,62.6667 274.5,62C 279.097,60.6842 283.764,59.6842 288.5,59C 289.5,58 290.5,57 291.5,56C 295.028,55.911 298.362,55.2444 301.5,54C 311.09,53.9664 320.59,53.1331 330,51.5C 340.117,52.9073 350.283,53.9073 360.5,54.5C 364.167,55.1667 367.833,55.8333 371.5,56.5C 371.709,57.086 372.043,57.586 372.5,58C 375.628,58.8412 378.628,59.6746 381.5,60.5 Z M 251.5,198.5 C 253.502,200.526 253.836,202.859 252.5,205.5C 251.526,203.257 251.192,200.924 251.5,198.5 Z M 254.5,211.5 C 255.598,212.601 255.765,213.934 255,215.5C 253.666,214.122 253.499,212.789 254.5,211.5 Z M 257.5,219.5 C 259.088,220.635 259.421,221.969 258.5,223.5C 257.571,222.311 257.238,220.978 257.5,219.5 Z M 491.5,228.5 C 491.702,230.989 491.202,233.323 490,235.5C 489.601,235.272 489.435,234.938 489.5,234.5C 489.025,231.918 489.692,229.918 491.5,228.5 Z M 239.5,234.5 C 240.401,235.29 241.068,236.29 241.5,237.5C 239.952,237.179 239.285,236.179 239.5,234.5 Z M 241.5,240.5 C 242.833,240.5 243.5,241.167 243.5,242.5C 242.5,242.167 241.833,241.5 241.5,240.5 Z M 314.5,278.5 C 316.337,278.639 316.67,279.306 315.5,280.5C 314.702,280.043 314.369,279.376 314.5,278.5 Z M 328.5,285.5 C 329.708,284.218 331.042,284.218 332.5,285.5C 331.192,286.626 329.858,286.626 328.5,285.5 Z M 351.5,290.5 C 355.012,289.945 358.012,290.612 360.5,292.5C 357.123,292.932 354.123,292.265 351.5,290.5 Z"/></g>
<g><path style="opacity:0.779" fill="#bda760" d="M 321.5,36.5 C 330.915,36.0828 340.248,36.5828 349.5,38C 349.167,38.3333 348.833,38.6667 348.5,39C 357.377,39.0265 366.044,40.0265 374.5,42C 376.286,42.1962 377.619,43.0295 378.5,44.5C 381.447,45.3214 384.447,45.8214 387.5,46C 397.077,49.4688 406.077,53.9688 414.5,59.5C 416.045,60.4519 417.712,60.7852 419.5,60.5C 419.5,61.5 419.5,62.5 419.5,63.5C 421.262,63.3573 422.929,63.6906 424.5,64.5C 429.479,68.3114 434.312,72.3114 439,76.5C 439.333,76.1667 439.667,75.8333 440,75.5C 445.983,82.1825 452.316,89.1825 459,96.5C 459.844,100.013 461.844,102.68 465,104.5C 470.978,114.059 476.311,123.726 481,133.5C 482.255,141.205 484.422,148.538 487.5,155.5C 487.267,168.992 487.1,182.659 487,196.5C 483.917,224.537 474.584,250.204 459,273.5C 425.018,317.86 379.851,337.693 323.5,333C 316.93,331.353 310.264,330.353 303.5,330C 287.592,324.368 271.925,318.368 256.5,312C 251.851,307.905 246.685,304.738 241,302.5C 240.583,303.756 239.75,304.423 238.5,304.5C 238.586,303.504 238.252,302.671 237.5,302C 234.293,301.428 232.626,299.595 232.5,296.5C 230.339,296.174 228.506,295.174 227,293.5C 226.517,292.552 226.351,291.552 226.5,290.5C 222.833,290.167 220.833,288.167 220.5,284.5C 219.448,284.649 218.448,284.483 217.5,284C 208.258,273.022 200.091,261.188 193,248.5C 192.505,246.527 192.338,244.527 192.5,242.5C 190.876,242.64 189.71,241.973 189,240.5C 187.43,235.665 186.263,230.665 185.5,225.5C 184.667,224.5 183.833,223.5 183,222.5C 180.502,202.683 179.836,182.683 181,162.5C 184,151.509 187.166,140.509 190.5,129.5C 192.231,128.015 193.231,126.015 193.5,123.5C 193.5,123.167 193.5,122.833 193.5,122.5C 195.047,121.232 196.047,119.565 196.5,117.5C 196.5,117.167 196.5,116.833 196.5,116.5C 198.176,115.817 198.843,114.483 198.5,112.5C 199.167,111.833 199.833,111.167 200.5,110.5C 201.833,109.833 201.833,109.167 200.5,108.5C 200.833,107.5 201.5,106.833 202.5,106.5C 204.048,106.179 204.715,105.179 204.5,103.5C 205.167,102.5 205.833,101.5 206.5,100.5C 207.167,100.5 207.5,100.167 207.5,99.5C 208.906,99.0269 209.573,98.0269 209.5,96.5C 210.338,96.1583 210.672,95.4916 210.5,94.5C 211.492,94.6716 212.158,94.3382 212.5,93.5C 213.64,91.9545 214.64,90.2879 215.5,88.5C 233.841,68.769 255.508,54.4357 280.5,45.5C 282.38,45.7709 283.713,45.1042 284.5,43.5C 287.188,43.8342 289.521,43.1675 291.5,41.5C 291.833,42.8333 292.167,42.8333 292.5,41.5C 295.5,40.8333 298.5,40.1667 301.5,39.5C 305.649,40.0803 309.316,39.4136 312.5,37.5C 315.518,37.2962 318.518,36.9629 321.5,36.5 Z M 311.5,86.5 C 309.611,87.322 307.611,88.1553 305.5,89C 305.833,89.3333 306.167,89.6667 306.5,90C 301.864,90.7318 297.531,91.8985 293.5,93.5C 293.5,94.5 293.5,95.5 293.5,96.5C 292.022,96.238 290.689,96.5713 289.5,97.5C 287.703,98.6951 286.703,100.362 286.5,102.5C 285.448,102.351 284.448,102.517 283.5,103C 279.856,107.394 276.022,111.561 272,115.5C 269.797,118.215 267.963,121.215 266.5,124.5C 266.031,119.813 263.698,118.48 259.5,120.5C 256.995,124.661 253.828,128.328 250,131.5C 249.506,133.134 249.34,134.801 249.5,136.5C 248.5,136.5 247.5,136.5 246.5,136.5C 244.638,143.234 241.805,149.567 238,155.5C 232.637,171.679 230.637,188.346 232,205.5C 232.938,214.555 234.771,223.222 237.5,231.5C 237.19,232.738 236.69,232.738 236,231.5C 234.156,228.467 233.156,225.134 233,221.5C 232.333,220.167 231.667,220.167 231,221.5C 229.706,220.146 229.54,218.812 230.5,217.5C 228.381,211.948 226.715,206.281 225.5,200.5C 224.334,190.183 224.168,179.849 225,169.5C 226.016,170.634 226.683,170.301 227,168.5C 226.975,162.032 228.142,155.865 230.5,150C 231.009,148.831 231.842,147.998 233,147.5C 233.531,143.991 234.531,140.658 236,137.5C 239.006,134.805 240.839,131.472 241.5,127.5C 242.822,127.67 243.989,127.337 245,126.5C 245.233,124.22 246.066,122.22 247.5,120.5C 251.046,117.222 254.379,113.722 257.5,110C 262.563,106.479 267.563,102.979 272.5,99.5C 274.078,98.7022 275.744,98.2022 277.5,98C 278.337,96.9887 278.67,95.8221 278.5,94.5C 282.465,93.6312 286.465,92.7979 290.5,92C 291.357,91.3109 292.023,90.4776 292.5,89.5C 295.64,88.9095 298.64,88.0761 301.5,87C 304.817,86.5017 308.15,86.335 311.5,86.5 Z M 251.5,157.5 C 251.337,159.857 251.503,162.19 252,164.5C 254.145,161.816 253.978,159.483 251.5,157.5 Z M 334.5,111.5 C 334.938,111.435 335.272,111.601 335.5,112C 334.833,112.333 334.167,112.667 333.5,113C 327.375,113.404 321.375,114.404 315.5,116C 311.656,119.111 307.323,120.944 302.5,121.5C 302.719,122.675 302.386,123.675 301.5,124.5C 299.123,125.585 296.789,126.752 294.5,128C 289.647,131.855 285.147,136.022 281,140.5C 277.506,145.15 274.506,150.483 272,156.5C 271.333,157.833 270.667,157.833 270,156.5C 268.667,161.5 267.333,166.5 266,171.5C 265.333,172.833 264.667,172.833 264,171.5C 263.91,179.019 263.077,186.352 261.5,193.5C 262.897,200.345 263.897,207.345 264.5,214.5C 266.201,219.415 267.534,224.415 268.5,229.5C 265.956,229.896 263.789,229.229 262,227.5C 261.833,227.833 261.667,228.167 261.5,228.5C 265.996,235.491 270.496,242.491 275,249.5C 275.667,250.833 276.333,250.833 277,249.5C 279.702,254.251 283.202,258.251 287.5,261.5C 293.567,265.019 299.233,269.019 304.5,273.5C 306.738,274.969 309.071,275.802 311.5,276C 310.167,274.667 310.167,273.333 311.5,272C 315.692,269.705 319.359,270.372 322.5,274C 339.537,277.456 356.537,277.289 373.5,273.5C 374.09,272.201 375.09,271.368 376.5,271C 380.317,270.529 383.983,269.529 387.5,268C 394.283,263.357 401.45,258.19 409,252.5C 412.799,246.858 416.966,241.525 421.5,236.5C 423.717,233.932 424.884,230.932 425,227.5C 426,226.833 427,226.167 428,225.5C 429.795,220.393 430.795,215.06 431,209.5C 432.735,207.646 433.902,205.479 434.5,203C 433.188,196.84 433.188,190.674 434.5,184.5C 434.308,182.143 433.142,180.476 431,179.5C 430.667,175.833 430.333,172.167 430,168.5C 426.678,160.472 422.511,152.805 417.5,145.5C 411.967,139.468 406.3,133.635 400.5,128C 397.726,126.219 394.726,124.885 391.5,124C 392.833,123.333 392.833,122.667 391.5,122C 386.936,120.883 382.936,118.883 379.5,116C 373.069,114.609 366.736,113.109 360.5,111.5C 351.675,110.179 343.009,110.179 334.5,111.5 Z M 254.5,147.5 C 253.323,149.103 253.489,150.436 255,151.5C 255.765,149.934 255.598,148.601 254.5,147.5 Z M 257.5,139.5 C 257.351,140.552 257.517,141.552 258,142.5C 260.14,140.947 259.973,139.947 257.5,139.5 Z M 364.5,73.5 C 371.912,74.1362 379.245,75.3029 386.5,77C 387.167,78.3333 388.167,79.3333 389.5,80C 393.5,81 397.5,82 401.5,83C 402.167,84 402.833,85 403.5,86C 406.779,87.1486 410.113,87.9819 413.5,88.5C 413.33,89.8221 413.663,90.9887 414.5,92C 418.459,92.364 421.459,94.1973 423.5,97.5C 425.167,98.1667 426.833,98.8333 428.5,99.5C 434.669,106.169 441.169,112.502 448,118.5C 452.322,124.492 456.655,130.492 461,136.5C 462.462,138.988 463.462,141.655 464,144.5C 465,145.167 466,145.833 467,146.5C 468.355,150.409 469.355,154.409 470,158.5C 470.816,159.823 471.983,160.489 473.5,160.5C 475.327,173.332 475.827,186.332 475,199.5C 473.717,204.657 473.05,209.99 473,215.5C 472,216.5 471,217.5 470,218.5C 469.284,223.888 468.284,229.222 467,234.5C 466.311,235.357 465.478,236.023 464.5,236.5C 462.774,242.937 460.274,248.937 457,254.5C 456.667,254.167 456.333,253.833 456,253.5C 454.632,254.993 454.465,256.493 455.5,258C 451.637,261.544 448.47,265.711 446,270.5C 436.681,279.932 427.514,288.765 418.5,297C 415.614,297.606 413.448,299.106 412,301.5C 410.951,300.483 409.784,300.316 408.5,301C 407.167,301.667 407.167,302.333 408.5,303C 403.611,305.362 398.777,307.862 394,310.5C 392.173,309.816 390.673,310.483 389.5,312.5C 384.482,314.787 379.149,315.954 373.5,316C 372.09,316.368 371.09,317.201 370.5,318.5C 355.05,321.318 339.383,322.151 323.5,321C 318.311,319.879 312.978,319.045 307.5,318.5C 306.91,317.201 305.91,316.368 304.5,316C 298.492,315.097 292.492,314.264 286.5,313.5C 286.5,312.5 286.5,311.5 286.5,310.5C 282.063,309.76 277.73,308.593 273.5,307C 265.235,302.063 256.569,296.896 247.5,291.5C 246.712,288.379 244.712,286.712 241.5,286.5C 238.342,282.171 235.509,277.504 233,272.5C 232,271.833 231,271.167 230,270.5C 224.716,259.662 220.049,249.328 216,239.5C 213.645,226.622 211.145,213.789 208.5,201C 208.667,198.5 208.833,196 209,193.5C 209.278,192.584 209.778,191.918 210.5,191.5C 209.24,201.848 211.073,211.515 216,220.5C 216.333,222.833 216.667,225.167 217,227.5C 220.583,235.139 224.749,242.472 229.5,249.5C 233.214,253.711 237.047,257.711 241,261.5C 242.438,262.9 243.271,264.567 243.5,266.5C 244.552,266.351 245.552,266.517 246.5,267C 247.833,267.667 247.833,268.333 246.5,269C 250.815,271.106 254.481,274.106 257.5,278C 263.416,281.284 269.249,284.784 275,288.5C 276.364,287.742 277.531,288.242 278.5,290C 280.5,290.333 282.5,290.667 284.5,291C 284.167,291.333 283.833,291.667 283.5,292C 284.672,292.419 285.672,293.085 286.5,294C 291.279,295.728 296.279,296.728 301.5,297C 300.366,298.016 300.699,298.683 302.5,299C 310.051,301.068 317.717,302.235 325.5,302.5C 324.047,303.825 324.381,304.658 326.5,305C 340.5,305.667 354.5,305.667 368.5,305C 370.301,304.683 370.634,304.016 369.5,303C 373.167,302.667 376.833,302.333 380.5,302C 382.956,300.289 385.623,298.956 388.5,298C 389.747,296.542 389.747,295.042 388.5,293.5C 386.816,292.85 385.483,291.85 384.5,290.5C 388.833,290.5 393.167,290.5 397.5,290.5C 402.661,289.017 407.994,288.017 413.5,287.5C 413.5,286.5 413.5,285.5 413.5,284.5C 414.873,284.657 416.207,284.49 417.5,284C 425.591,276.675 433.424,269.175 441,261.5C 445.296,255.44 449.13,249.107 452.5,242.5C 453.8,238.057 455.3,233.724 457,229.5C 457.667,228.833 458.333,228.167 459,227.5C 459.499,223.848 459.665,220.182 459.5,216.5C 460.5,216.5 461.5,216.5 462.5,216.5C 462.667,201.83 462.5,187.163 462,172.5C 461.586,172.043 461.086,171.709 460.5,171.5C 459.675,167.878 459.175,164.211 459,160.5C 458.329,159.748 457.496,159.414 456.5,159.5C 455.886,154.648 454.72,149.982 453,145.5C 451.191,143.286 449.524,140.952 448,138.5C 447.667,136.833 447.333,135.167 447,133.5C 446.31,132.262 445.81,132.262 445.5,133.5C 442.253,126.91 438.42,120.577 434,114.5C 433.667,114.833 433.333,115.167 433,115.5C 423.297,104.119 412.131,94.619 399.5,87C 388.196,81.4179 376.529,76.9179 364.5,73.5 Z M 331.5,82.5 C 326.944,84.4417 321.944,85.1083 316.5,84.5C 316.611,83.8826 316.944,83.3826 317.5,83C 322.155,82.5008 326.821,82.3342 331.5,82.5 Z M 361.5,72.5 C 357.298,72.8168 353.298,72.4834 349.5,71.5C 353.758,69.9383 357.758,70.2716 361.5,72.5 Z M 383.5,61.5 C 386.01,61.0535 388.01,61.7202 389.5,63.5C 386.99,63.9465 384.99,63.2798 383.5,61.5 Z M 381.5,60.5 C 376.806,61.1045 372.472,60.2711 368.5,58C 347.214,56.5572 326.214,57.7239 305.5,61.5C 305.291,62.086 304.957,62.586 304.5,63C 301.5,63.3333 298.5,63.6667 295.5,64C 286.632,67.8783 277.632,71.8783 268.5,76C 266.353,78.1683 263.353,80.1683 259.5,82C 250.112,88.7716 241.612,95.9383 234,103.5C 230.647,107.193 227.647,111.193 225,115.5C 224.333,114.167 223.667,114.167 223,115.5C 221.278,118.279 220.111,121.279 219.5,124.5C 218.5,124.5 217.5,124.5 216.5,124.5C 216.657,125.873 216.49,127.207 216,128.5C 212.842,131.957 211.009,135.957 210.5,140.5C 209.5,140.5 208.5,140.5 207.5,140.5C 207.66,142.199 207.494,143.866 207,145.5C 204.014,152.348 201.348,159.348 199,166.5C 198.896,172.348 197.896,178.014 196,183.5C 195.5,189.825 195.334,196.158 195.5,202.5C 194.341,192.008 194.175,181.341 195,170.5C 196.279,165.679 196.946,160.679 197,155.5C 198,154.833 199,154.167 200,153.5C 200.565,148.039 201.732,142.705 203.5,137.5C 206.064,133.495 208.064,129.161 209.5,124.5C 210.478,124.023 211.311,123.357 212,122.5C 213.162,118.089 215.162,114.089 218,110.5C 221.427,105.992 225.093,101.658 229,97.5C 229.483,96.552 229.649,95.552 229.5,94.5C 231.433,94.2714 233.1,93.4381 234.5,92C 235.337,90.9887 235.67,89.8221 235.5,88.5C 238.101,87.7204 240.101,86.0537 241.5,83.5C 251.113,76.9716 260.613,70.6383 270,64.5C 271.507,65.5348 273.007,65.3681 274.5,64C 275.833,63.3333 275.833,62.6667 274.5,62C 279.097,60.6842 283.764,59.6842 288.5,59C 289.5,58 290.5,57 291.5,56C 295.028,55.911 298.362,55.2444 301.5,54C 311.09,53.9664 320.59,53.1331 330,51.5C 340.117,52.9073 350.283,53.9073 360.5,54.5C 364.167,55.1667 367.833,55.8333 371.5,56.5C 371.709,57.086 372.043,57.586 372.5,58C 375.628,58.8412 378.628,59.6746 381.5,60.5 Z M 251.5,198.5 C 251.192,200.924 251.526,203.257 252.5,205.5C 253.836,202.859 253.502,200.526 251.5,198.5 Z M 254.5,211.5 C 253.499,212.789 253.666,214.122 255,215.5C 255.765,213.934 255.598,212.601 254.5,211.5 Z M 257.5,219.5 C 257.238,220.978 257.571,222.311 258.5,223.5C 259.421,221.969 259.088,220.635 257.5,219.5 Z M 239.5,234.5 C 240.401,235.29 241.068,236.29 241.5,237.5C 239.952,237.179 239.285,236.179 239.5,234.5 Z M 241.5,240.5 C 242.833,240.5 243.5,241.167 243.5,242.5C 242.5,242.167 241.833,241.5 241.5,240.5 Z M 314.5,278.5 C 314.369,279.376 314.702,280.043 315.5,280.5C 316.67,279.306 316.337,278.639 314.5,278.5 Z M 328.5,285.5 C 329.858,286.626 331.192,286.626 332.5,285.5C 331.042,284.218 329.708,284.218 328.5,285.5 Z M 351.5,290.5 C 355.012,289.945 358.012,290.612 360.5,292.5C 357.123,292.932 354.123,292.265 351.5,290.5 Z"/></g>
<g><path style="opacity:0.931" fill="#d5cfae" d="M 331.5,82.5 C 350.512,81.7229 368.512,85.5562 385.5,94C 393.237,99.9344 401.571,104.934 410.5,109C 411.376,110.586 412.376,112.086 413.5,113.5C 420.851,117.518 426.518,123.184 430.5,130.5C 433.172,137.054 436.672,143.054 441,148.5C 448.198,165.726 450.531,183.726 448,202.5C 446.305,208.746 444.972,215.079 444,221.5C 434.661,240.204 422.494,257.037 407.5,272C 399.468,276.348 391.468,280.681 383.5,285C 381.527,285.495 379.527,285.662 377.5,285.5C 377.5,286.833 377.5,288.167 377.5,289.5C 379.903,289.448 382.236,289.781 384.5,290.5C 385.483,291.85 386.816,292.85 388.5,293.5C 389.747,295.042 389.747,296.542 388.5,298C 385.623,298.956 382.956,300.289 380.5,302C 376.833,302.333 373.167,302.667 369.5,303C 370.634,304.016 370.301,304.683 368.5,305C 354.5,305.667 340.5,305.667 326.5,305C 324.381,304.658 324.047,303.825 325.5,302.5C 334.044,300.968 342.711,300.134 351.5,300C 357.1,298.749 362.6,297.249 368,295.5C 368.781,294.056 368.614,292.723 367.5,291.5C 365.253,292.374 362.92,292.708 360.5,292.5C 358.012,290.612 355.012,289.945 351.5,290.5C 348.101,290.193 344.934,289.193 342,287.5C 341.617,288.056 341.117,288.389 340.5,288.5C 339.5,287.167 338.5,287.167 337.5,288.5C 337.082,289.222 336.416,289.722 335.5,290C 309.647,292.271 286.98,284.937 267.5,268C 266.167,267.667 264.833,267.333 263.5,267C 255.826,259.509 249.159,251.342 243.5,242.5C 243.5,241.167 242.833,240.5 241.5,240.5C 241.5,239.5 241.5,238.5 241.5,237.5C 241.068,236.29 240.401,235.29 239.5,234.5C 239.5,234.167 239.5,233.833 239.5,233.5C 239.167,232.5 238.5,231.833 237.5,231.5C 234.771,223.222 232.938,214.555 232,205.5C 230.637,188.346 232.637,171.679 238,155.5C 241.805,149.567 244.638,143.234 246.5,136.5C 247.5,136.5 248.5,136.5 249.5,136.5C 249.34,134.801 249.506,133.134 250,131.5C 253.828,128.328 256.995,124.661 259.5,120.5C 263.698,118.48 266.031,119.813 266.5,124.5C 267.963,121.215 269.797,118.215 272,115.5C 276.022,111.561 279.856,107.394 283.5,103C 284.448,102.517 285.448,102.351 286.5,102.5C 286.703,100.362 287.703,98.6951 289.5,97.5C 290.689,96.5713 292.022,96.238 293.5,96.5C 293.5,95.5 293.5,94.5 293.5,93.5C 297.531,91.8985 301.864,90.7318 306.5,90C 306.167,89.6667 305.833,89.3333 305.5,89C 307.611,88.1553 309.611,87.322 311.5,86.5C 313.767,86.8545 315.101,86.5211 315.5,85.5C 315.5,84.8333 315.833,84.5 316.5,84.5C 321.944,85.1083 326.944,84.4417 331.5,82.5 Z M 251.5,157.5 C 251.337,159.857 251.503,162.19 252,164.5C 254.145,161.816 253.978,159.483 251.5,157.5 Z M 334.5,111.5 C 334.938,111.435 335.272,111.601 335.5,112C 334.833,112.333 334.167,112.667 333.5,113C 327.375,113.404 321.375,114.404 315.5,116C 311.656,119.111 307.323,120.944 302.5,121.5C 302.719,122.675 302.386,123.675 301.5,124.5C 299.123,125.585 296.789,126.752 294.5,128C 289.647,131.855 285.147,136.022 281,140.5C 277.506,145.15 274.506,150.483 272,156.5C 271.333,157.833 270.667,157.833 270,156.5C 268.667,161.5 267.333,166.5 266,171.5C 265.333,172.833 264.667,172.833 264,171.5C 263.91,179.019 263.077,186.352 261.5,193.5C 262.897,200.345 263.897,207.345 264.5,214.5C 266.201,219.415 267.534,224.415 268.5,229.5C 265.956,229.896 263.789,229.229 262,227.5C 261.833,227.833 261.667,228.167 261.5,228.5C 265.996,235.491 270.496,242.491 275,249.5C 275.667,250.833 276.333,250.833 277,249.5C 279.702,254.251 283.202,258.251 287.5,261.5C 293.567,265.019 299.233,269.019 304.5,273.5C 306.738,274.969 309.071,275.802 311.5,276C 310.167,274.667 310.167,273.333 311.5,272C 315.692,269.705 319.359,270.372 322.5,274C 339.537,277.456 356.537,277.289 373.5,273.5C 374.09,272.201 375.09,271.368 376.5,271C 380.317,270.529 383.983,269.529 387.5,268C 394.283,263.357 401.45,258.19 409,252.5C 412.799,246.858 416.966,241.525 421.5,236.5C 423.717,233.932 424.884,230.932 425,227.5C 426,226.833 427,226.167 428,225.5C 429.795,220.393 430.795,215.06 431,209.5C 432.735,207.646 433.902,205.479 434.5,203C 433.188,196.84 433.188,190.674 434.5,184.5C 434.308,182.143 433.142,180.476 431,179.5C 430.667,175.833 430.333,172.167 430,168.5C 426.678,160.472 422.511,152.805 417.5,145.5C 411.967,139.468 406.3,133.635 400.5,128C 397.726,126.219 394.726,124.885 391.5,124C 392.833,123.333 392.833,122.667 391.5,122C 386.936,120.883 382.936,118.883 379.5,116C 373.069,114.609 366.736,113.109 360.5,111.5C 351.675,110.179 343.009,110.179 334.5,111.5 Z M 254.5,147.5 C 253.323,149.103 253.489,150.436 255,151.5C 255.765,149.934 255.598,148.601 254.5,147.5 Z M 257.5,139.5 C 257.351,140.552 257.517,141.552 258,142.5C 260.14,140.947 259.973,139.947 257.5,139.5 Z M 251.5,198.5 C 251.192,200.924 251.526,203.257 252.5,205.5C 253.836,202.859 253.502,200.526 251.5,198.5 Z M 254.5,211.5 C 253.499,212.789 253.666,214.122 255,215.5C 255.765,213.934 255.598,212.601 254.5,211.5 Z M 257.5,219.5 C 257.238,220.978 257.571,222.311 258.5,223.5C 259.421,221.969 259.088,220.635 257.5,219.5 Z M 314.5,278.5 C 314.369,279.376 314.702,280.043 315.5,280.5C 316.67,279.306 316.337,278.639 314.5,278.5 Z M 328.5,285.5 C 329.858,286.626 331.192,286.626 332.5,285.5C 331.042,284.218 329.708,284.218 328.5,285.5 Z"/></g>
<g><path style="opacity:0.777" fill="#85764c" d="M 381.5,60.5 C 381.842,61.3382 382.508,61.6716 383.5,61.5C 384.99,63.2798 386.99,63.9465 389.5,63.5C 391.485,64.0475 393.151,65.0475 394.5,66.5C 398.118,67.4183 401.784,68.5849 405.5,70C 416.428,75.4817 426.428,82.4817 435.5,91C 436.833,91.3333 438.167,91.6667 439.5,92C 443.34,97.6727 448.007,102.506 453.5,106.5C 456.573,111.643 459.407,116.977 462,122.5C 463,124.167 464.333,125.5 466,126.5C 468.646,134.47 471.313,142.47 474,150.5C 474.808,154.027 474.641,157.36 473.5,160.5C 471.983,160.489 470.816,159.823 470,158.5C 469.355,154.409 468.355,150.409 467,146.5C 466,145.833 465,145.167 464,144.5C 463.462,141.655 462.462,138.988 461,136.5C 456.655,130.492 452.322,124.492 448,118.5C 441.169,112.502 434.669,106.169 428.5,99.5C 426.833,98.8333 425.167,98.1667 423.5,97.5C 421.459,94.1973 418.459,92.364 414.5,92C 413.663,90.9887 413.33,89.8221 413.5,88.5C 410.113,87.9819 406.779,87.1486 403.5,86C 402.833,85 402.167,84 401.5,83C 397.5,82 393.5,81 389.5,80C 388.167,79.3333 387.167,78.3333 386.5,77C 379.245,75.3029 371.912,74.1362 364.5,73.5C 363.209,73.7373 362.209,73.404 361.5,72.5C 357.758,70.2716 353.758,69.9383 349.5,71.5C 329.439,70.1179 309.772,72.2846 290.5,78C 274.749,83.8993 260.749,92.8993 248.5,105C 244.513,106.152 241.18,108.318 238.5,111.5C 230.168,124.083 223.335,137.416 218,151.5C 217.333,152.167 216.667,152.833 216,153.5C 212.262,165.874 210.429,178.541 210.5,191.5C 209.778,191.918 209.278,192.584 209,193.5C 208.833,196 208.667,198.5 208.5,201C 211.145,213.789 213.645,226.622 216,239.5C 220.049,249.328 224.716,259.662 230,270.5C 231,271.167 232,271.833 233,272.5C 235.509,277.504 238.342,282.171 241.5,286.5C 244.712,286.712 246.712,288.379 247.5,291.5C 245.565,290.85 243.565,290.517 241.5,290.5C 241.5,289.5 241.5,288.5 241.5,287.5C 234.063,285.239 228.563,280.572 225,273.5C 212.586,261.649 204.252,247.316 200,230.5C 197.411,221.357 195.911,212.024 195.5,202.5C 195.334,196.158 195.5,189.825 196,183.5C 197.896,178.014 198.896,172.348 199,166.5C 201.348,159.348 204.014,152.348 207,145.5C 207.494,143.866 207.66,142.199 207.5,140.5C 208.5,140.5 209.5,140.5 210.5,140.5C 211.009,135.957 212.842,131.957 216,128.5C 216.49,127.207 216.657,125.873 216.5,124.5C 217.5,124.5 218.5,124.5 219.5,124.5C 220.111,121.279 221.278,118.279 223,115.5C 223.667,114.167 224.333,114.167 225,115.5C 227.647,111.193 230.647,107.193 234,103.5C 241.612,95.9383 250.112,88.7716 259.5,82C 263.353,80.1683 266.353,78.1683 268.5,76C 277.632,71.8783 286.632,67.8783 295.5,64C 298.5,63.6667 301.5,63.3333 304.5,63C 304.957,62.586 305.291,62.086 305.5,61.5C 326.214,57.7239 347.214,56.5572 368.5,58C 372.472,60.2711 376.806,61.1045 381.5,60.5 Z M 254.5,147.5 C 253.323,149.103 253.489,150.436 255,151.5C 255.765,149.934 255.598,148.601 254.5,147.5 Z M 257.5,139.5 C 257.351,140.552 257.517,141.552 258,142.5C 260.14,140.947 259.973,139.947 257.5,139.5 Z M 331.5,82.5 C 326.944,84.4417 321.944,85.1083 316.5,84.5C 316.611,83.8826 316.944,83.3826 317.5,83C 322.155,82.5008 326.821,82.3342 331.5,82.5 Z M 361.5,72.5 C 357.298,72.8168 353.298,72.4834 349.5,71.5C 353.758,69.9383 357.758,70.2716 361.5,72.5 Z"/></g>
<g><path style="opacity:0.756" fill="#c0aa62" d="M 349.5,71.5 C 353.298,72.4834 357.298,72.8168 361.5,72.5C 362.209,73.404 363.209,73.7373 364.5,73.5C 376.529,76.9179 388.196,81.4179 399.5,87C 412.131,94.619 423.297,104.119 433,115.5C 433.333,115.167 433.667,114.833 434,114.5C 438.42,120.577 442.253,126.91 445.5,133.5C 443.487,135.168 441.82,137.168 440.5,139.5C 439.05,138.345 438.05,136.845 437.5,135C 434.871,133.828 432.538,132.328 430.5,130.5C 426.518,123.184 420.851,117.518 413.5,113.5C 412.376,112.086 411.376,110.586 410.5,109C 401.571,104.934 393.237,99.9344 385.5,94C 368.512,85.5562 350.512,81.7229 331.5,82.5C 326.821,82.3342 322.155,82.5008 317.5,83C 316.944,83.3826 316.611,83.8826 316.5,84.5C 315.833,84.5 315.5,84.8333 315.5,85.5C 313.901,85.2322 312.568,85.5655 311.5,86.5C 308.15,86.335 304.817,86.5017 301.5,87C 298.64,88.0761 295.64,88.9095 292.5,89.5C 292.023,90.4776 291.357,91.3109 290.5,92C 286.465,92.7979 282.465,93.6312 278.5,94.5C 278.67,95.8221 278.337,96.9887 277.5,98C 275.744,98.2022 274.078,98.7022 272.5,99.5C 267.563,102.979 262.563,106.479 257.5,110C 254.379,113.722 251.046,117.222 247.5,120.5C 246.066,122.22 245.233,124.22 245,126.5C 243.989,127.337 242.822,127.67 241.5,127.5C 240.839,131.472 239.006,134.805 236,137.5C 234.531,140.658 233.531,143.991 233,147.5C 231.842,147.998 231.009,148.831 230.5,150C 228.142,155.865 226.975,162.032 227,168.5C 226.683,170.301 226.016,170.634 225,169.5C 224.168,179.849 224.334,190.183 225.5,200.5C 226.715,206.281 228.381,211.948 230.5,217.5C 229.54,218.812 229.706,220.146 231,221.5C 231.667,220.167 232.333,220.167 233,221.5C 233.156,225.134 234.156,228.467 236,231.5C 236.69,232.738 237.19,232.738 237.5,231.5C 238.5,231.833 239.167,232.5 239.5,233.5C 238.167,233.833 238.167,234.167 239.5,234.5C 239.285,236.179 239.952,237.179 241.5,237.5C 241.5,238.5 241.5,239.5 241.5,240.5C 241.833,241.5 242.5,242.167 243.5,242.5C 249.159,251.342 255.826,259.509 263.5,267C 264.833,267.333 266.167,267.667 267.5,268C 286.98,284.937 309.647,292.271 335.5,290C 336.416,289.722 337.082,289.222 337.5,288.5C 338.5,288.5 339.5,288.5 340.5,288.5C 341.117,288.389 341.617,288.056 342,287.5C 344.934,289.193 348.101,290.193 351.5,290.5C 354.123,292.265 357.123,292.932 360.5,292.5C 362.92,292.708 365.253,292.374 367.5,291.5C 368.614,292.723 368.781,294.056 368,295.5C 362.6,297.249 357.1,298.749 351.5,300C 342.711,300.134 334.044,300.968 325.5,302.5C 317.717,302.235 310.051,301.068 302.5,299C 300.699,298.683 300.366,298.016 301.5,297C 296.279,296.728 291.279,295.728 286.5,294C 285.672,293.085 284.672,292.419 283.5,292C 283.833,291.667 284.167,291.333 284.5,291C 282.5,290.667 280.5,290.333 278.5,290C 277.531,288.242 276.364,287.742 275,288.5C 269.249,284.784 263.416,281.284 257.5,278C 254.481,274.106 250.815,271.106 246.5,269C 247.833,268.333 247.833,267.667 246.5,267C 245.552,266.517 244.552,266.351 243.5,266.5C 243.271,264.567 242.438,262.9 241,261.5C 237.047,257.711 233.214,253.711 229.5,249.5C 224.749,242.472 220.583,235.139 217,227.5C 216.667,225.167 216.333,222.833 216,220.5C 211.073,211.515 209.24,201.848 210.5,191.5C 210.429,178.541 212.262,165.874 216,153.5C 216.667,152.833 217.333,152.167 218,151.5C 223.335,137.416 230.168,124.083 238.5,111.5C 241.18,108.318 244.513,106.152 248.5,105C 260.749,92.8993 274.749,83.8993 290.5,78C 309.772,72.2846 329.439,70.1179 349.5,71.5 Z M 331.5,82.5 C 326.944,84.4417 321.944,85.1083 316.5,84.5C 316.611,83.8826 316.944,83.3826 317.5,83C 322.155,82.5008 326.821,82.3342 331.5,82.5 Z"/></g>
<g><path style="opacity:0.841" fill="#85754c" d="M 487.5,155.5 C 488.547,161.784 489.38,168.118 490,174.5C 490.333,174.167 490.667,173.833 491,173.5C 492.153,176.711 492.82,180.044 493,183.5C 493.34,196.688 493.507,209.688 493.5,222.5C 491.559,224.316 490.892,226.316 491.5,228.5C 489.692,229.918 489.025,231.918 489.5,234.5C 488.776,236.218 488.109,238.052 487.5,240C 488.634,241.016 488.301,241.683 486.5,242C 486.728,242.399 487.062,242.565 487.5,242.5C 469.637,290.858 435.971,322.691 386.5,338C 385.058,338.377 384.058,339.21 383.5,340.5C 356.499,341.775 329.499,341.775 302.5,340.5C 292.332,337.338 282.332,333.505 272.5,329C 260.437,321.793 249.104,313.626 238.5,304.5C 239.75,304.423 240.583,303.756 241,302.5C 246.685,304.738 251.851,307.905 256.5,312C 271.925,318.368 287.592,324.368 303.5,330C 310.264,330.353 316.93,331.353 323.5,333C 379.851,337.693 425.018,317.86 459,273.5C 474.584,250.204 483.917,224.537 487,196.5C 487.1,182.659 487.267,168.992 487.5,155.5 Z"/></g>
<g><path style="opacity:0.978" fill="#d4cda9" d="M 456.5,159.5 C 457.496,159.414 458.329,159.748 459,160.5C 459.175,164.211 459.675,167.878 460.5,171.5C 461.086,171.709 461.586,172.043 462,172.5C 462.5,187.163 462.667,201.83 462.5,216.5C 461.5,216.5 460.5,216.5 459.5,216.5C 459.665,220.182 459.499,223.848 459,227.5C 458.333,228.167 457.667,228.833 457,229.5C 455.3,233.724 453.8,238.057 452.5,242.5C 449.13,249.107 445.296,255.44 441,261.5C 433.424,269.175 425.591,276.675 417.5,284C 416.207,284.49 414.873,284.657 413.5,284.5C 413.5,285.5 413.5,286.5 413.5,287.5C 407.994,288.017 402.661,289.017 397.5,290.5C 397.441,287.951 398.441,285.951 400.5,284.5C 443.611,256.541 461.944,217.041 455.5,166C 455.653,163.784 455.986,161.617 456.5,159.5 Z"/></g>
<g><path style="opacity:1" fill="#c5b272" d="M 430.5,130.5 C 432.538,132.328 434.871,133.828 437.5,135C 438.05,136.845 439.05,138.345 440.5,139.5C 441.82,137.168 443.487,135.168 445.5,133.5C 445.81,132.262 446.31,132.262 447,133.5C 447.333,135.167 447.667,136.833 448,138.5C 449.524,140.952 451.191,143.286 453,145.5C 454.72,149.982 455.886,154.648 456.5,159.5C 455.986,161.617 455.653,163.784 455.5,166C 461.944,217.041 443.611,256.541 400.5,284.5C 398.441,285.951 397.441,287.951 397.5,290.5C 393.167,290.5 388.833,290.5 384.5,290.5C 382.236,289.781 379.903,289.448 377.5,289.5C 377.5,288.167 377.5,286.833 377.5,285.5C 379.527,285.662 381.527,285.495 383.5,285C 391.468,280.681 399.468,276.348 407.5,272C 422.494,257.037 434.661,240.204 444,221.5C 444.972,215.079 446.305,208.746 448,202.5C 450.531,183.726 448.198,165.726 441,148.5C 436.672,143.054 433.172,137.054 430.5,130.5 Z"/></g>
<g><path style="opacity:1" fill="#fdfdfd" d="M -0.5,340.5 C 79.1667,340.5 158.833,340.5 238.5,340.5C 240.833,340.5 243.167,340.5 245.5,340.5C 249.579,343.056 253.579,345.889 257.5,349C 269.765,353.199 282.098,357.199 294.5,361C 298.848,361.465 303.181,361.965 307.5,362.5C 318.65,363.076 329.65,363.743 340.5,364.5C 325.553,396.646 311.553,429.313 298.5,462.5C 302.833,462.5 307.167,462.5 311.5,462.5C 314.44,452.443 318.106,442.61 322.5,433C 335.5,432.333 348.5,432.333 361.5,433C 364.947,442.677 368.78,452.177 373,461.5C 377.401,462.467 381.901,462.8 386.5,462.5C 373.27,429.804 359.27,397.47 344.5,365.5C 363.315,363.273 381.982,359.773 400.5,355C 401.167,354 401.833,353 402.5,352C 410.563,349.469 417.896,345.636 424.5,340.5C 427.5,340.5 430.5,340.5 433.5,340.5C 530.833,340.5 628.167,340.5 725.5,340.5C 725.5,386.5 725.5,432.5 725.5,478.5C 483.5,478.5 241.5,478.5 -0.5,478.5C -0.5,432.5 -0.5,386.5 -0.5,340.5 Z"/></g>
<g><path style="opacity:1" fill="#ae9b61" d="M 284.5,340.5 C 289.13,341.844 293.796,343.344 298.5,345C 329.032,350.886 359.032,349.386 388.5,340.5C 390.379,340.393 390.712,340.893 389.5,342C 386.274,342.885 383.274,344.219 380.5,346C 348.638,352.805 316.971,351.805 285.5,343C 284.376,342.751 283.376,342.251 282.5,341.5C 282.957,340.702 283.624,340.369 284.5,340.5 Z"/></g>
<g><path style="opacity:1" fill="#e9e5d9" d="M 284.5,340.5 C 288.167,340.5 291.833,340.5 295.5,340.5C 297.833,340.5 300.167,340.5 302.5,340.5C 329.499,341.775 356.499,341.775 383.5,340.5C 385.167,340.5 386.833,340.5 388.5,340.5C 359.032,349.386 329.032,350.886 298.5,345C 293.796,343.344 289.13,341.844 284.5,340.5 Z"/></g>
<g><path style="opacity:1" fill="#ddd5bc" d="M 245.5,340.5 C 247.927,340.523 250.26,341.023 252.5,342C 260.337,346.386 268.337,350.386 276.5,354C 286.014,356.484 295.68,358.651 305.5,360.5C 306.167,361.167 306.833,361.833 307.5,362.5C 303.181,361.965 298.848,361.465 294.5,361C 282.098,357.199 269.765,353.199 257.5,349C 253.579,345.889 249.579,343.056 245.5,340.5 Z"/></g>
<g><path style="opacity:1" fill="#c1b387" d="M 424.5,340.5 C 417.896,345.636 410.563,349.469 402.5,352C 401.833,353 401.167,354 400.5,355C 381.982,359.773 363.315,363.273 344.5,365.5C 343.292,364.766 341.959,364.433 340.5,364.5C 329.65,363.743 318.65,363.076 307.5,362.5C 306.833,361.833 306.167,361.167 305.5,360.5C 315.497,361.166 325.497,361.832 335.5,362.5C 347.501,361.477 359.501,360.31 371.5,359C 372.328,358.085 373.328,357.419 374.5,357C 391.813,353.501 408.479,348.001 424.5,340.5 Z"/></g>
<g><path style="opacity:1" fill="#efece3" d="M 168.5,373.5 C 171.001,371.177 173.001,371.844 174.5,375.5C 173.957,375.56 173.624,375.893 173.5,376.5C 187.746,396.836 189.246,418.169 178,440.5C 164.691,460.17 146.191,468.003 122.5,464C 106.773,460.723 94.2725,452.556 85,439.5C 84.6012,439.728 84.4346,440.062 84.5,440.5C 83.1522,439.473 82.6522,438.14 83,436.5C 84.3919,438.842 85.2252,438.842 85.5,436.5C 86.8308,439.127 88.6642,441.46 91,443.5C 77.2598,418.986 80.0931,396.486 99.5,376C 120.989,360.093 142.989,359.426 165.5,374C 168.333,376.833 171.167,379.667 174,382.5C 173.236,378.993 171.402,375.993 168.5,373.5 Z"/></g>
<g><path style="opacity:1" fill="#8f8f91" d="M 36.5,367.5 C 25.8333,367.5 15.1667,367.5 4.5,367.5C 4.5,398.833 4.5,430.167 4.5,461.5C 7.83333,461.5 11.1667,461.5 14.5,461.5C 14.1709,447.323 14.5042,433.323 15.5,419.5C 15.5,433.833 15.5,448.167 15.5,462.5C 11.5,462.5 7.5,462.5 3.5,462.5C 3.5,430.5 3.5,398.5 3.5,366.5C 14.6794,366.172 25.6794,366.505 36.5,367.5 Z"/></g>
<g><path style="opacity:1" fill="#636467" d="M 36.5,367.5 C 56.1459,372.017 62.9792,384.017 57,403.5C 54.5,410 50,414.5 43.5,417C 34.0641,418.085 24.7308,418.918 15.5,419.5C 14.5042,433.323 14.1709,447.323 14.5,461.5C 11.1667,461.5 7.83333,461.5 4.5,461.5C 4.5,430.167 4.5,398.833 4.5,367.5C 15.1667,367.5 25.8333,367.5 36.5,367.5 Z"/></g>
<g><path style="opacity:1" fill="#9d9d9f" d="M 459.5,367.5 C 445.167,367.5 430.833,367.5 416.5,367.5C 416.5,398.833 416.5,430.167 416.5,461.5C 430.167,461.5 443.833,461.5 457.5,461.5C 443.677,462.496 429.677,462.829 415.5,462.5C 415.5,430.5 415.5,398.5 415.5,366.5C 430.343,366.171 445.01,366.504 459.5,367.5 Z"/></g>
<g><path style="opacity:1" fill="#fafafb" d="M 15.5,376.5 C 23.3821,375.861 31.0488,376.694 38.5,379C 44.0879,381.578 46.7546,385.912 46.5,392C 46.7321,398.869 44.0654,404.203 38.5,408C 30.9458,409.432 23.2792,409.932 15.5,409.5C 15.5,398.5 15.5,387.5 15.5,376.5 Z"/></g>
<g><path style="opacity:1" fill="#bbab78" d="M 121.5,366.5 C 146.157,363.258 164.657,372.258 177,393.5C 182.859,408.515 182.859,423.515 177,438.5C 165.134,457.511 147.967,465.344 125.5,462C 102,453.671 88.6662,437.171 85.5,412.5C 87.5015,389.183 99.5015,373.849 121.5,366.5 Z"/></g>
<g><path style="opacity:1" fill="#f5f2eb" d="M 123.5,368.5 C 139.613,366.853 153.613,371.353 165.5,382C 160.795,379.486 155.795,377.153 150.5,375C 122.467,368.601 102.967,378.768 92,405.5C 91.5811,414.187 91.5811,422.854 92,431.5C 84.5269,410.304 89.0269,392.138 105.5,377C 111.208,373.31 117.208,370.477 123.5,368.5 Z"/></g>
<g><path style="opacity:1" fill="#fcfbf9" d="M 130.5,446.5 C 109.617,435.742 102.117,419.075 108,396.5C 102.042,406.02 100.876,416.186 104.5,427C 105.706,430.132 107.372,432.966 109.5,435.5C 109.376,436.107 109.043,436.44 108.5,436.5C 93.8978,420.229 93.8978,403.896 108.5,387.5C 117.116,380.071 127.116,377.405 138.5,379.5C 117.291,381.896 107.457,393.896 109,415.5C 110.109,402.058 116.943,392.892 129.5,388C 146.578,385.283 158.411,391.783 165,407.5C 167.471,425.736 159.971,437.569 142.5,443C 139.833,443.333 137.167,443.667 134.5,444C 138.635,445.431 142.968,445.931 147.5,445.5C 158.942,443.914 166.775,437.581 171,426.5C 175.081,400.603 164.581,384.103 139.5,377C 135.5,376.667 131.5,376.333 127.5,376C 148.963,372.982 165.13,380.815 176,399.5C 179.575,409.631 179.242,419.631 175,429.5C 167.219,447.239 153.553,456.572 134,457.5C 102.904,454.3 89.9042,437.3 95,406.5C 96.6023,436.603 112.436,450.603 142.5,448.5C 138.499,447.701 134.499,447.035 130.5,446.5 Z"/></g>
<g><path style="opacity:1" fill="#656669" d="M 230.5,365.5 C 239.32,364.971 247.987,365.804 256.5,368C 262.391,371.057 266.724,375.557 269.5,381.5C 269.392,382.442 269.059,383.275 268.5,384C 265.47,385.284 262.47,386.451 259.5,387.5C 257.443,382.273 253.777,378.44 248.5,376C 240.027,372.795 232.86,374.629 227,381.5C 223.58,390.101 225.413,397.268 232.5,403C 240.972,406.449 249.638,409.449 258.5,412C 272.485,422.621 275.319,435.788 267,451.5C 262.329,458.259 255.829,462.092 247.5,463C 229.09,466.403 217.09,459.236 211.5,441.5C 214.044,437.885 217.377,436.552 221.5,437.5C 227.188,454.049 237.855,458.216 253.5,450C 256.106,448.062 257.939,445.562 259,442.5C 262.192,432.392 259.025,425.225 249.5,421C 240.085,418.225 231.085,414.558 222.5,410C 213.142,401.016 210.975,390.516 216,378.5C 219.785,372.875 224.618,368.542 230.5,365.5 Z"/></g>
<g><path style="opacity:1" fill="#66676a" d="M 459.5,367.5 C 476.692,370.853 488.192,380.853 494,397.5C 499.016,414.614 496.683,430.614 487,445.5C 478.972,454.098 469.139,459.432 457.5,461.5C 443.833,461.5 430.167,461.5 416.5,461.5C 416.5,430.167 416.5,398.833 416.5,367.5C 430.833,367.5 445.167,367.5 459.5,367.5 Z"/></g>
<g><path style="opacity:1" fill="#fdfdfd" d="M 427.5,377.5 C 438.172,377.333 448.839,377.5 459.5,378C 480.888,387.954 488.388,404.454 482,427.5C 478.175,438.99 470.675,446.823 459.5,451C 448.839,451.5 438.172,451.667 427.5,451.5C 427.5,426.833 427.5,402.167 427.5,377.5 Z"/></g>
<g><path style="opacity:1" fill="#656669" d="M 652.5,365.5 C 667.425,363.13 678.425,368.464 685.5,381.5C 683.212,384.988 679.879,386.988 675.5,387.5C 674.93,383.088 672.597,379.922 668.5,378C 661.101,373.383 653.767,373.383 646.5,378C 639.357,386.91 640.024,395.243 648.5,403C 657.059,406.187 665.725,409.187 674.5,412C 685.834,419.12 690,429.287 687,442.5C 684.09,453.743 676.923,460.576 665.5,463C 655.438,464.87 646.105,463.203 637.5,458C 632.146,452.812 629.479,446.645 629.5,439.5C 632.167,438.167 634.833,436.833 637.5,435.5C 641.831,452.332 652.164,457.499 668.5,451C 675.298,445.827 677.798,438.994 676,430.5C 674.542,428.04 672.709,425.873 670.5,424C 660.571,419.469 650.571,415.136 640.5,411C 628.926,401.846 626.426,390.679 633,377.5C 637.689,370.252 644.189,366.252 652.5,365.5 Z"/></g>
<g><path style="opacity:1" fill="#67686a" d="M 559.5,364.5 C 562.238,363.965 564.072,364.965 565,367.5C 578.726,398.829 592.559,430.163 606.5,461.5C 601.88,462.493 597.214,462.827 592.5,462.5C 588.525,452.594 584.859,442.594 581.5,432.5C 568.167,432.5 554.833,432.5 541.5,432.5C 537.833,442.5 534.167,452.5 530.5,462.5C 526.116,462.826 521.783,462.492 517.5,461.5C 531.496,429.183 545.496,396.85 559.5,364.5 Z"/></g>
<g><path style="opacity:1" fill="#f9f9f9" d="M 560.5,384.5 C 562.136,385.749 563.303,387.416 564,389.5C 568.491,400.796 572.657,412.129 576.5,423.5C 566.145,423.832 555.812,423.499 545.5,422.5C 550.125,409.612 555.125,396.946 560.5,384.5 Z"/></g>
<g><path style="opacity:1" fill="#d0ccae" d="M 130.5,446.5 C 121.879,445.854 114.545,442.52 108.5,436.5C 109.043,436.44 109.376,436.107 109.5,435.5C 107.372,432.966 105.706,430.132 104.5,427C 100.876,416.186 102.042,406.02 108,396.5C 102.117,419.075 109.617,435.742 130.5,446.5 Z"/></g>
<g><path style="opacity:1" fill="#907e41" d="M 168.5,373.5 C 171.402,375.993 173.236,378.993 174,382.5C 171.167,379.667 168.333,376.833 165.5,374C 142.989,359.426 120.989,360.093 99.5,376C 80.0931,396.486 77.2598,418.986 91,443.5C 88.6642,441.46 86.8308,439.127 85.5,436.5C 72.9502,410.75 77.6169,388.584 99.5,370C 123.536,353.595 146.536,354.762 168.5,373.5 Z"/></g>
<g><path style="opacity:1" fill="#68686b" d="M 340.5,364.5 C 341.959,364.433 343.292,364.766 344.5,365.5C 359.27,397.47 373.27,429.804 386.5,462.5C 381.901,462.8 377.401,462.467 373,461.5C 368.78,452.177 364.947,442.677 361.5,433C 348.5,432.333 335.5,432.333 322.5,433C 318.106,442.61 314.44,452.443 311.5,462.5C 307.167,462.5 302.833,462.5 298.5,462.5C 311.553,429.313 325.553,396.646 340.5,364.5 Z"/></g>
<g><path style="opacity:1" fill="#f8f8f8" d="M 340.5,383.5 C 341.75,383.577 342.583,384.244 343,385.5C 347.505,398.198 352.005,410.865 356.5,423.5C 346.5,423.5 336.5,423.5 326.5,423.5C 330.697,409.982 335.364,396.648 340.5,383.5 Z"/></g>
<g><path style="opacity:1" fill="#d0ccae" d="M 138.5,379.5 C 165.941,387.427 174.441,404.76 164,431.5C 159.802,437.877 154.302,442.544 147.5,445.5C 142.968,445.931 138.635,445.431 134.5,444C 137.167,443.667 139.833,443.333 142.5,443C 159.971,437.569 167.471,425.736 165,407.5C 158.411,391.783 146.578,385.283 129.5,388C 116.943,392.892 110.109,402.058 109,415.5C 107.457,393.896 117.291,381.896 138.5,379.5 Z"/></g>
<g><path style="opacity:1" fill="#7e7e7f" d="M 706.5,441.5 C 716.367,441.198 720.867,445.864 720,455.5C 716.867,461.327 712.034,463.493 705.5,462C 697.203,454.589 697.537,447.756 706.5,441.5 Z"/></g>
<g><path style="opacity:1" fill="#e8e8e8" d="M 706.5,443.5 C 714.828,442.663 718.661,446.33 718,454.5C 715.983,459.924 712.15,461.758 706.5,460C 699.856,454.375 699.856,448.875 706.5,443.5 Z"/></g>
<g><path style="opacity:1" fill="#959596" d="M 706.5,445.5 C 713.716,444.688 715.716,447.355 712.5,453.5C 713.04,454.748 713.707,455.915 714.5,457C 712.269,457.163 710.935,455.997 710.5,453.5C 709.675,452.614 708.675,452.281 707.5,452.5C 707.66,454.199 707.494,455.866 707,457.5C 706.501,453.514 706.334,449.514 706.5,445.5 Z"/></g>
<g><path style="opacity:1" fill="#ded6bf" d="M 175.5,433.5 C 176.043,433.56 176.376,433.893 176.5,434.5C 167.182,453.663 151.848,462.163 130.5,460C 151.181,460.342 166.181,451.509 175.5,433.5 Z"/></g>
<g><path style="opacity:1" fill="#917f42" d="M 174.5,375.5 C 193.316,398.859 194.482,423.192 178,448.5C 158.973,468.549 136.473,474.049 110.5,465C 99.7186,459.051 91.0519,450.885 84.5,440.5C 84.4346,440.062 84.6012,439.728 85,439.5C 94.2725,452.556 106.773,460.723 122.5,464C 146.191,468.003 164.691,460.17 178,440.5C 189.246,418.169 187.746,396.836 173.5,376.5C 173.624,375.893 173.957,375.56 174.5,375.5 Z"/></g>
</svg>
